# Blender v3.0.1 OBJ File: 'objectos.blend'
# www.blender.org
mtllib Botella.mtl
o Whiiskey_Plane.001
v -0.083550 0.028652 -0.144449
v 0.083550 0.027325 -0.145775
v -0.083550 0.023289 0.149811
v 0.083550 0.021963 0.151137
v -0.025062 0.646225 -0.051924
v -0.025062 0.646225 0.051924
v 0.025062 0.646225 0.051924
v 0.025062 0.646225 -0.051924
v -0.083550 0.458012 -0.124566
v -0.064795 0.486386 -0.173100
v -0.083550 0.442452 -0.144726
v -0.081037 0.486386 -0.153671
v -0.074172 0.486386 -0.167894
v -0.015455 0.556736 -0.070877
v -0.034210 0.556736 -0.032019
v -0.025062 0.595427 -0.051924
v -0.024832 0.556736 -0.065671
v -0.031697 0.556736 -0.051448
v -0.066115 0.486386 0.173100
v -0.083550 0.458012 0.127301
v -0.083550 0.444563 0.144726
v -0.074833 0.486386 0.168261
v -0.081214 0.486386 0.155039
v -0.034210 0.556736 0.034754
v -0.016775 0.556736 0.070877
v -0.025062 0.593881 0.051924
v -0.031874 0.556736 0.052816
v -0.025492 0.556736 0.066037
v 0.083550 0.460096 0.136534
v 0.070228 0.486386 0.173100
v 0.083550 0.452164 0.146810
v 0.081765 0.486386 0.159300
v 0.076889 0.486386 0.169403
v 0.020888 0.556736 0.070877
v 0.034210 0.556736 0.043276
v 0.025062 0.589062 0.051924
v 0.027549 0.556736 0.067179
v 0.032425 0.556736 0.057076
v 0.068726 0.486386 -0.173100
v 0.083550 0.460096 -0.133422
v 0.083550 0.449763 -0.146810
v 0.076138 0.486386 -0.168986
v 0.081564 0.486386 -0.157744
v 0.034210 0.556736 -0.040165
v 0.019386 0.556736 -0.070877
v 0.025062 0.590821 -0.051924
v 0.032224 0.556736 -0.055521
v 0.026798 0.556736 -0.066762
v -0.041232 0.670759 -0.085425
v -0.034428 0.651925 -0.071328
v -0.040321 0.662858 -0.083537
v -0.037830 0.655964 -0.078377
v -0.034428 0.651925 0.071328
v -0.041232 0.670759 0.085425
v -0.037830 0.655964 0.078377
v -0.040321 0.662858 0.083537
v 0.034428 0.651925 0.071328
v 0.041232 0.670759 0.085425
v 0.037830 0.655964 0.078377
v 0.040321 0.662858 0.083537
v 0.034428 0.651925 -0.071328
v 0.041232 0.670759 -0.085425
v 0.037830 0.655964 -0.078377
v 0.040321 0.662858 -0.083537
v -0.030220 0.712927 -0.062610
v -0.041232 0.690112 -0.085425
v -0.035726 0.709870 -0.074018
v -0.039757 0.701519 -0.082369
v -0.041232 0.690112 0.085425
v -0.030220 0.712927 0.062610
v -0.039757 0.701519 0.082369
v -0.035726 0.709870 0.074018
v 0.041232 0.690112 0.085425
v 0.030220 0.712927 0.062610
v 0.039757 0.701519 0.082369
v 0.035726 0.709870 0.074018
v 0.041232 0.690112 -0.085425
v 0.030220 0.712927 -0.062610
v 0.039757 0.701519 -0.082369
v 0.035726 0.709870 -0.074018
v 0.083550 0.003474 -0.160135
v 0.083550 0.000000 -0.147169
v 0.083550 0.012965 -0.169626
v 0.083550 0.025931 -0.173100
v 0.083550 0.000000 0.160297
v 0.083550 0.001715 0.166699
v 0.083550 0.006402 0.171385
v 0.083550 0.012804 0.173100
v 0.083550 0.465083 0.173100
v 0.083550 0.486386 0.145499
v 0.083550 0.486386 -0.142388
v 0.083550 0.462681 -0.173100
v -0.083550 0.000000 -0.147169
v -0.083550 0.003474 -0.160135
v -0.083550 0.012965 -0.169626
v -0.083550 0.025931 -0.173100
v -0.083550 0.001715 0.166699
v -0.083550 0.000000 0.160297
v -0.083550 0.006402 0.171385
v -0.083550 0.012804 0.173100
v -0.083550 0.456394 -0.173100
v -0.083550 0.486386 -0.134242
v -0.083550 0.486386 0.136978
v -0.083550 0.458505 0.173100
vt 0.911288 1.000000
vt 0.112241 1.000000
vt 0.274122 1.000000
vt 0.783342 1.000000
vt 0.000000 0.000000
vt 1.000000 0.000000
vt 1.000000 0.000000
vt 0.920275 0.000000
vt 0.104340 0.000000
vt 0.000000 0.000000
vt 0.000000 0.887759
vt 0.000000 0.104340
vt 0.000000 0.254827
vt 0.000000 0.725878
vt 0.805289 0.000000
vt 0.254827 0.000000
vt 1.000000 0.925099
vt 0.000000 0.925099
vt 0.000000 0.962549
vt 1.000000 0.962549
vt 0.000000 0.996655
vt 1.000000 0.996655
vt 0.000000 1.000000
vt 1.000000 1.000000
vt 0.000000 0.036983
vt 1.000000 0.036983
vt 1.000000 0.018492
vt 0.000000 0.018492
vt 1.000000 0.001652
vt 0.000000 0.001652
vt 0.000000 1.000000
vt 0.000000 0.000000
vt 0.000000 0.000000
vt 0.000000 1.000000
vt 1.000000 0.000000
vt 1.000000 0.000000
vt 0.000000 0.952185
vt 0.000000 1.000000
vt 0.000000 1.027504
vt 0.000000 1.094489
vt 0.131920 1.000000
vt 0.031366 1.000000
vt 0.006510 1.000000
vt 0.047815 1.000000
vt 0.000000 0.868080
vt 1.000000 0.194711
vt 1.000000 0.783342
vt 1.000000 1.000000
vt 1.000000 1.000000
vt 0.044427 0.000000
vt -0.025550 0.000000
vt -0.087801 0.000000
vt 0.000000 0.122033
vt 0.000000 0.026351
vt 0.000000 -0.001503
vt 0.122496 0.000000
vt 0.000000 0.044145
vt 1.000000 0.079725
vt 1.000000 0.033895
vt 1.000000 -0.019478
vt 1.000000 -0.066974
vt 0.907033 0.000000
vt 0.980037 0.000000
vt 1.001147 0.000000
vt 1.000000 0.093269
vt 0.966297 0.000000
vt 1.000000 1.000000
vt 0.962499 1.000000
vt 1.021145 1.000000
vt 1.072472 1.000000
vt 1.000000 0.896337
vt 1.000000 0.977140
vt 1.000000 0.999712
vt 1.000000 0.911288
vt 1.000000 0.962424
vt 0.896460 1.000000
vt 1.000000 0.915922
vt 1.000000 0.924160
vt 1.000000 0.922789
vt 1.000000 0.057611
vt 1.000000 0.072856
vt 1.000000 0.075766
vt 1.000000 0.046797
vt 1.000000 0.075940
vt 1.000000 0.105625
vt 1.000000 0.885392
vt 1.000000 0.924063
vt 1.000000 0.924942
vt 0.000000 0.920972
vt 0.000000 0.917309
vt 0.000000 0.918854
vt 0.000000 0.047612
vt 0.000000 0.060746
vt 0.000000 0.078270
vt 0.000000 0.915101
vt 0.000000 0.918043
vt 0.000000 0.859810
vt 0.000000 0.132293
vt 0.000000 0.081960
vt 0.000000 0.081806
vt 0.000000 1.000000
vt 1.000000 1.000000
vt 0.000000 0.000000
vt 1.000000 0.000000
vt 1.000000 0.000000
vt 0.000000 0.000000
vt 1.000000 1.000000
vt 1.000000 1.000000
vt 0.000000 1.000000
vt 0.000000 1.000000
vt 0.133541 0.133540
vt 0.866459 0.133541
vt 0.866459 0.866459
vt 0.133541 0.866459
vt 1.000000 0.000000
vt 0.000000 0.000000
vt 0.001676 0.001676
vt 0.001676 0.998324
vt 0.005527 0.005527
vt 0.005527 0.994473
vt 0.998324 0.001676
vt 0.994473 0.005527
vt 0.998324 0.998324
vt 0.994473 0.994473
vt 0.008946 0.008946
vt 0.008946 0.991055
vt 0.066770 0.066770
vt 0.066770 0.933230
vt 0.991055 0.008946
vt 0.933230 0.066770
vt 0.991055 0.991055
vt 0.933230 0.933230
vn 0.0000 0.8238 -0.5669
vn -0.0000 0.0000 1.0000
vn -0.8187 0.5742 0.0000
vn 0.0000 0.8238 0.5669
vn 0.0000 -0.9659 -0.2588
vn 0.0000 -0.7071 -0.7071
vn 0.0000 -0.2588 -0.9659
vn 0.0000 -1.0000 0.0000
vn 0.0000 -0.9659 0.2588
vn 0.0000 -0.7071 0.7071
vn 0.0000 -0.2588 0.9659
vn -0.9959 0.0905 0.0008
vn 0.0105 0.1915 0.9814
vn -0.9783 0.1639 -0.1265
vn -0.8481 0.3363 -0.4094
vn -0.4644 0.2904 -0.8366
vn -0.4639 0.2941 -0.8356
vn -0.8907 0.1475 -0.4299
vn -0.9780 0.1661 -0.1265
vn -0.2560 0.8496 -0.4611
vn -0.5590 0.7841 -0.2698
vn -0.7438 0.6614 -0.0962
vn 0.9955 0.0952 0.0009
vn -0.4644 0.2904 0.8366
vn -0.8481 0.3363 0.4094
vn -0.9783 0.1639 0.1265
vn -0.9752 0.1819 0.1261
vn -0.8870 0.1729 0.4281
vn -0.4598 0.3200 0.8283
vn -0.2560 0.8496 0.4611
vn -0.5590 0.7841 0.2698
vn -0.7438 0.6614 0.0962
vn 0.0102 0.1881 -0.9821
vn 0.9783 0.1639 0.1265
vn 0.8481 0.3363 0.4094
vn 0.4644 0.2904 0.8366
vn 0.4426 0.4103 0.7973
vn 0.8685 0.2646 0.4192
vn 0.9630 0.2392 0.1245
vn 0.7438 0.6614 0.0962
vn 0.5590 0.7841 0.2698
vn 0.2560 0.8496 0.4611
vn -0.0000 0.0000 -1.0000
vn 0.4644 0.2904 -0.8366
vn 0.8481 0.3363 -0.4094
vn 0.9783 0.1639 -0.1265
vn 0.9682 0.2166 -0.1252
vn 0.8767 0.2288 -0.4231
vn 0.4498 0.3756 -0.8103
vn 0.7438 0.6614 -0.0962
vn 0.5590 0.7841 -0.2698
vn 0.2560 0.8496 -0.4611
vn 0.8187 0.5742 0.0000
vn 1.0000 0.0000 0.0000
vn -1.0000 0.0000 0.0000
vn 0.0000 -0.9595 -0.2819
vn 0.0000 1.0000 0.0000
vn 0.0000 -0.9595 0.2819
vn 0.5199 -0.8542 0.0000
vn -0.7648 -0.6442 0.0000
vn -0.9405 -0.3398 0.0000
vn -0.9934 -0.1146 0.0000
vn 0.0000 -0.8676 0.4972
vn 0.0000 -0.5992 0.8006
vn 0.0000 -0.2325 0.9726
vn 0.7648 -0.6442 0.0000
vn 0.9405 -0.3398 0.0000
vn 0.9934 -0.1146 0.0000
vn 0.0000 -0.8676 -0.4972
vn 0.0000 -0.5992 -0.8006
vn 0.0000 -0.2325 -0.9726
vn -0.5199 -0.8542 0.0000
vn -0.9917 0.1283 0.0000
vn -0.9006 0.4347 0.0000
vn -0.4854 0.8743 0.0000
vn 0.0000 0.2588 0.9659
vn 0.0000 0.7071 0.7071
vn 0.0000 0.9659 0.2588
vn 0.9917 0.1283 0.0000
vn 0.9006 0.4347 0.0000
vn 0.4854 0.8743 0.0000
vn 0.0000 0.2588 -0.9659
vn 0.0000 0.7071 -0.7071
vn 0.0000 0.9659 -0.2588
usemtl Botella
s off
f 39/1/1 10/2/1 14/3/1 45/4/1
f 100/5/2 88/6/2 89/7/2 30/8/2 19/9/2 104/10/2
f 102/11/3 103/12/3 24/13/3 15/14/3
f 19/9/4 30/8/4 34/15/4 25/16/4
f 82/17/5 93/18/5 94/19/5 81/20/5
f 81/20/6 94/19/6 95/21/6 83/22/6
f 83/22/7 95/21/7 96/23/7 84/24/7
f 98/25/8 93/18/8 82/17/8 85/26/8
f 98/25/9 85/26/9 86/27/9 97/28/9
f 97/28/10 86/27/10 87/29/10 99/30/10
f 99/30/11 87/29/11 88/6/11 100/5/11
f 16/31/12 15/14/12 24/13/12 26/32/12 6/33/12 5/34/12
f 26/32/13 25/16/13 34/15/13 36/35/13 7/36/13 6/33/13
f 102/11/14 12/37/14 101/38/14
f 12/37/15 13/39/15 101/38/15
f 13/39/16 10/40/16 101/38/16
f 14/3/17 17/41/17 16/31/17
f 17/41/18 18/42/18 16/31/18
f 18/42/19 15/43/19 16/31/19
f 14/3/20 10/2/20 13/44/20 17/41/20
f 17/41/21 13/44/21 12/37/21 18/45/21
f 18/45/22 12/37/22 102/11/22 15/14/22
f 36/35/23 35/46/23 44/47/23 46/48/23 8/49/23 7/36/23
f 19/9/24 22/50/24 104/10/24
f 22/50/25 23/51/25 104/10/25
f 23/51/26 103/52/26 104/10/26
f 24/13/27 27/53/27 26/32/27
f 27/53/28 28/54/28 26/32/28
f 28/54/29 25/55/29 26/32/29
f 19/9/30 25/16/30 28/56/30 22/50/30
f 22/50/31 28/56/31 27/53/31 23/57/31
f 23/57/32 27/53/32 24/13/32 103/12/32
f 46/48/33 45/4/33 14/3/33 16/31/33 5/34/33 8/49/33
f 90/58/34 32/59/34 89/7/34
f 32/59/35 33/60/35 89/7/35
f 33/60/36 30/61/36 89/7/36
f 34/15/37 37/62/37 36/35/37
f 37/62/38 38/63/38 36/35/38
f 38/63/39 35/64/39 36/35/39
f 90/58/40 35/46/40 38/65/40 32/59/40
f 32/59/41 38/65/41 37/62/41 33/66/41
f 33/66/42 37/62/42 34/15/42 30/8/42
f 84/24/43 96/23/43 101/38/43 10/2/43 39/1/43 92/67/43
f 39/1/44 42/68/44 92/67/44
f 42/68/45 43/69/45 92/67/45
f 43/69/46 91/70/46 92/67/46
f 44/47/47 47/71/47 46/48/47
f 47/71/48 48/72/48 46/48/48
f 48/72/49 45/73/49 46/48/49
f 44/47/50 91/74/50 43/75/50 47/71/50
f 47/71/51 43/75/51 42/68/51 48/76/51
f 48/76/52 42/68/52 39/1/52 45/4/52
f 90/58/53 91/74/53 44/47/53 35/46/53
f 2/77/54 82/17/54 81/20/54
f 2/78/54 81/20/54 83/22/54
f 2/79/54 83/22/54 84/24/54
f 4/80/54 86/27/54 85/26/54
f 4/81/54 87/29/54 86/27/54
f 4/82/54 88/6/54 87/29/54
f 2/77/54 4/83/54 85/26/54 82/17/54
f 31/84/54 29/85/54 90/58/54 89/7/54
f 4/82/54 31/84/54 89/7/54 88/6/54
f 40/86/54 41/87/54 92/67/54 91/74/54
f 29/85/54 40/86/54 91/74/54 90/58/54
f 41/87/54 2/88/54 84/24/54 92/67/54
f 1/89/55 94/19/55 93/18/55
f 1/90/55 95/21/55 94/19/55
f 1/91/55 96/23/55 95/21/55
f 3/92/55 98/25/55 97/28/55
f 3/93/55 97/28/55 99/30/55
f 3/94/55 99/30/55 100/5/55
f 3/92/55 1/95/55 93/18/55 98/25/55
f 11/96/55 9/97/55 102/11/55 101/38/55
f 1/91/55 11/96/55 101/38/55 96/23/55
f 20/98/55 21/99/55 104/10/55 103/12/55
f 21/99/55 3/100/55 100/5/55 104/10/55
f 9/97/55 20/98/55 103/12/55 102/11/55
usemtl Stampa
f 31/84/54 4/83/54 2/88/54 41/87/54 40/86/54 29/85/54
f 11/96/55 1/95/55 3/100/55 21/99/55 20/98/55 9/97/55
usemtl Tapa
f 8/49/56 5/34/56 50/101/56 61/102/56
f 54/103/2 58/104/2 73/105/2 69/106/2
f 58/104/54 62/107/54 77/108/54 73/105/54
f 62/107/43 49/109/43 66/110/43 77/108/43
f 70/111/57 74/112/57 78/113/57 65/114/57
f 6/33/58 7/36/58 57/115/58 53/116/58
f 7/36/59 8/49/59 61/102/59 57/115/59
f 50/101/60 53/116/60 55/117/60 52/118/60
f 52/118/61 55/117/61 56/119/61 51/120/61
f 51/120/62 56/119/62 54/103/62 49/109/62
f 53/116/63 57/115/63 59/121/63 55/117/63
f 55/117/64 59/121/64 60/122/64 56/119/64
f 56/119/65 60/122/65 58/104/65 54/103/65
f 57/115/66 61/102/66 63/123/66 59/121/66
f 59/121/67 63/123/67 64/124/67 60/122/67
f 60/122/68 64/124/68 62/107/68 58/104/68
f 61/102/69 50/101/69 52/118/69 63/123/69
f 63/123/70 52/118/70 51/120/70 64/124/70
f 64/124/71 51/120/71 49/109/71 62/107/71
f 5/34/72 6/33/72 53/116/72 50/101/72
f 66/110/73 69/106/73 71/125/73 68/126/73
f 68/126/74 71/125/74 72/127/74 67/128/74
f 67/128/75 72/127/75 70/111/75 65/114/75
f 69/106/76 73/105/76 75/129/76 71/125/76
f 71/125/77 75/129/77 76/130/77 72/127/77
f 72/127/78 76/130/78 74/112/78 70/111/78
f 73/105/79 77/108/79 79/131/79 75/129/79
f 75/129/80 79/131/80 80/132/80 76/130/80
f 76/130/81 80/132/81 78/113/81 74/112/81
f 77/108/82 66/110/82 68/126/82 79/131/82
f 79/131/83 68/126/83 67/128/83 80/132/83
f 80/132/84 67/128/84 65/114/84 78/113/84
f 49/109/55 54/103/55 69/106/55 66/110/55
