# Blender v3.0.1 OBJ File: 'Tumbas.blend'
# www.blender.org
mtllib Cruz.mtl
o Cruz2_Plane.008
v 0.000092 0.489005 -1.250491
v 0.136176 0.489005 -1.250491
v 0.000092 0.761999 -1.250491
v 0.136176 0.761999 -1.250491
v 0.000092 0.761999 -1.250491
v 0.000092 0.489005 -1.250491
v 0.136176 0.489005 -1.250491
v 0.136176 0.761999 -1.250491
v 0.000092 0.761999 -1.237560
v 0.000092 0.489005 -1.237561
v 0.136176 0.489005 -1.237561
v 0.136176 0.761999 -1.237560
v 0.037982 0.489005 -1.250491
v 0.075779 0.489005 -1.250491
v 0.113576 0.489005 -1.250491
v 0.113576 0.761999 -1.250491
v 0.075779 0.761999 -1.250491
v 0.037982 0.761999 -1.250491
v 0.037982 0.489005 -1.250491
v 0.075779 0.489005 -1.250491
v 0.113576 0.489005 -1.250491
v 0.113576 0.761999 -1.250491
v 0.075779 0.761999 -1.250491
v 0.037982 0.761999 -1.250491
v 0.037982 0.489005 -1.237561
v 0.075779 0.489005 -1.237561
v 0.113576 0.489005 -1.237561
v 0.113576 0.761999 -1.237560
v 0.075779 0.761999 -1.237560
v 0.037982 0.761999 -1.237560
v 0.000092 0.067109 -1.237561
v 0.000092 0.067109 -1.250492
v 0.037982 0.067109 -1.250492
v 0.037982 0.067109 -1.237561
v 0.000092 0.707400 -1.250491
v 0.000092 0.652801 -1.250491
v 0.000092 0.598202 -1.250491
v 0.000092 0.543604 -1.250491
v 0.136176 0.543604 -1.250491
v 0.136176 0.598202 -1.250491
v 0.136176 0.652801 -1.250491
v 0.136176 0.707400 -1.250491
v 0.000092 0.707400 -1.250491
v 0.000092 0.652801 -1.250491
v 0.000092 0.598202 -1.250491
v 0.000092 0.543604 -1.250491
v 0.136176 0.543604 -1.250491
v 0.136176 0.598202 -1.250491
v 0.136176 0.652801 -1.250491
v 0.136176 0.707400 -1.250491
v 0.000092 0.707400 -1.237560
v 0.000092 0.652801 -1.237560
v 0.000092 0.598202 -1.237560
v 0.000092 0.543604 -1.237561
v 0.136176 0.543604 -1.237561
v 0.136176 0.598202 -1.237560
v 0.136176 0.652801 -1.237560
v 0.136176 0.707400 -1.237560
v 0.037982 0.543604 -1.237561
v 0.037982 0.598202 -1.237560
v 0.037982 0.652801 -1.237560
v 0.037982 0.707400 -1.237560
v 0.075779 0.543604 -1.237561
v 0.075779 0.598202 -1.237560
v 0.075779 0.652801 -1.237560
v 0.075779 0.707400 -1.237560
v 0.113576 0.543604 -1.237561
v 0.113576 0.598202 -1.237560
v 0.113576 0.652801 -1.237560
v 0.113576 0.707400 -1.237560
v 0.037982 0.707400 -1.250491
v 0.037982 0.652801 -1.250491
v 0.037982 0.598202 -1.250491
v 0.037982 0.543604 -1.250491
v 0.075779 0.707400 -1.250491
v 0.075779 0.652801 -1.250491
v 0.075779 0.598202 -1.250491
v 0.075779 0.543604 -1.250491
v 0.113576 0.707400 -1.250491
v 0.113576 0.652801 -1.250491
v 0.113576 0.598202 -1.250491
v 0.113576 0.543604 -1.250491
v 0.415687 0.652801 -1.250491
v 0.415687 0.707400 -1.250491
v 0.415687 0.652801 -1.237560
v 0.415687 0.707400 -1.237560
v 0.037982 0.953334 -1.250491
v 0.000092 0.953334 -1.250491
v 0.037982 0.953334 -1.237560
v 0.000092 0.953334 -1.237560
v -0.135991 0.489005 -1.250491
v -0.135991 0.761999 -1.250491
v -0.135991 0.489005 -1.250491
v -0.135991 0.761999 -1.250491
v -0.135991 0.489005 -1.237561
v -0.135991 0.761999 -1.237560
v -0.037797 0.489005 -1.250491
v -0.075594 0.489005 -1.250491
v -0.113391 0.489005 -1.250491
v -0.113391 0.761999 -1.250491
v -0.075594 0.761999 -1.250491
v -0.037797 0.761999 -1.250491
v -0.037797 0.489005 -1.250491
v -0.075594 0.489005 -1.250491
v -0.113391 0.489005 -1.250491
v -0.113391 0.761999 -1.250491
v -0.075594 0.761999 -1.250491
v -0.037797 0.761999 -1.250491
v -0.037797 0.489005 -1.237561
v -0.075594 0.489005 -1.237561
v -0.113391 0.489005 -1.237561
v -0.113391 0.761999 -1.237560
v -0.075594 0.761999 -1.237560
v -0.037797 0.761999 -1.237560
v -0.037797 0.067109 -1.250492
v -0.037797 0.067109 -1.237561
v -0.135991 0.543604 -1.250491
v -0.135991 0.598202 -1.250491
v -0.135991 0.652801 -1.250491
v -0.135991 0.707400 -1.250491
v -0.135991 0.543604 -1.250491
v -0.135991 0.598202 -1.250491
v -0.135991 0.652801 -1.250491
v -0.135991 0.707400 -1.250491
v -0.135991 0.543604 -1.237561
v -0.135991 0.598202 -1.237560
v -0.135991 0.652801 -1.237560
v -0.135991 0.707400 -1.237560
v -0.037797 0.543604 -1.237561
v -0.037797 0.598202 -1.237560
v -0.037797 0.652801 -1.237560
v -0.037797 0.707400 -1.237560
v -0.075594 0.543604 -1.237561
v -0.075594 0.598202 -1.237560
v -0.075594 0.652801 -1.237560
v -0.075594 0.707400 -1.237560
v -0.113391 0.543604 -1.237561
v -0.113391 0.598202 -1.237560
v -0.113391 0.652801 -1.237560
v -0.113391 0.707400 -1.237560
v -0.037797 0.707400 -1.250491
v -0.037797 0.652801 -1.250491
v -0.037797 0.598202 -1.250491
v -0.037797 0.543604 -1.250491
v -0.075594 0.707400 -1.250491
v -0.075594 0.652801 -1.250491
v -0.075594 0.598202 -1.250491
v -0.075594 0.543604 -1.250491
v -0.113391 0.707400 -1.250491
v -0.113391 0.652801 -1.250491
v -0.113391 0.598202 -1.250491
v -0.113391 0.543604 -1.250491
v -0.415502 0.652801 -1.250491
v -0.415502 0.707400 -1.250491
v -0.415502 0.652801 -1.237560
v -0.415502 0.707400 -1.237560
v -0.037797 0.953334 -1.250491
v -0.037797 0.953334 -1.237560
v -0.406342 0.587400 -1.101946
v 0.406342 0.587400 -1.101946
v -0.406342 0.587400 -1.238515
v 0.406342 0.587400 -1.238515
v -0.406342 0.597957 -1.238515
v -0.406342 0.597957 -1.101946
v 0.406342 0.597957 -1.101946
v 0.406342 0.597957 -1.238515
v -0.000000 0.877708 -1.101946
v -0.000000 0.877708 -1.238515
v -0.000000 0.888266 -1.101946
v -0.000000 0.888266 -1.238515
v -0.000000 0.877708 -1.101946
v -0.000000 0.888266 -1.101946
v -0.000000 0.888266 -1.238515
vt 0.750000 0.800000
vt 0.750000 1.000000
vt 1.000000 1.000000
vt 1.000000 0.800000
vt 0.000000 1.000000
vt 0.000000 1.000000
vt 0.000000 1.000000
vt 0.000000 1.000000
vt 1.000000 1.000000
vt 1.000000 0.800000
vt 0.000000 0.200000
vt 0.000000 0.000000
vt 0.000000 0.000000
vt 0.000000 0.200000
vt 0.250000 1.000000
vt 0.000000 1.000000
vt 0.250000 1.000000
vt 0.750000 0.000000
vt 1.000000 0.000000
vt 1.000000 0.000000
vt 0.750000 0.000000
vt 0.750000 0.800000
vt 1.000000 0.800000
vt 1.000000 1.000000
vt 0.750000 1.000000
vt 1.000000 0.000000
vt 0.750000 0.000000
vt 0.000000 0.000000
vt 0.000000 0.200000
vt 0.250000 0.000000
vt 0.250000 0.000000
vt 0.250000 0.000000
vt 0.250000 0.000000
vt 0.500000 0.000000
vt 0.500000 0.000000
vt 0.000000 0.800000
vt 0.250000 0.800000
vt 0.250000 1.000000
vt 0.500000 0.800000
vt 0.500000 1.000000
vt 0.250000 0.000000
vt 0.500000 0.000000
vt 0.750000 1.000000
vt 0.500000 1.000000
vt 0.500000 1.000000
vt 0.000000 0.800000
vt 0.250000 0.800000
vt 0.500000 0.800000
vt 0.000000 0.000000
vt 0.000000 0.000000
vt 0.500000 0.200000
vt 0.750000 0.200000
vt 0.500000 0.400000
vt 0.750000 0.400000
vt 0.500000 0.600000
vt 0.750000 0.600000
vt 0.250000 0.200000
vt 0.250000 0.400000
vt 0.250000 0.600000
vt 0.000000 0.400000
vt 0.000000 0.600000
vt 0.750000 0.200000
vt 0.500000 0.200000
vt 0.750000 0.400000
vt 0.500000 0.400000
vt 0.750000 0.600000
vt 0.500000 0.600000
vt 0.250000 0.200000
vt 0.250000 0.400000
vt 0.250000 0.600000
vt 0.000000 0.400000
vt 0.000000 0.600000
vt 0.000000 0.800000
vt 0.000000 0.600000
vt 0.000000 0.400000
vt 1.000000 0.200000
vt 1.000000 0.200000
vt 1.000000 0.400000
vt 1.000000 0.400000
vt 1.000000 0.600000
vt 1.000000 0.600000
vt 1.000000 0.600000
vt 1.000000 0.800000
vt 1.000000 0.200000
vt 1.000000 0.400000
vt 1.000000 0.600000
vt 1.000000 0.600000
vt 1.000000 0.800000
vt 0.250000 1.000000
vt 0.250000 1.000000
vt 0.750000 0.800000
vt 1.000000 0.800000
vt 1.000000 1.000000
vt 0.750000 1.000000
vt 1.000000 0.800000
vt 1.000000 1.000000
vt 0.250000 1.000000
vt 0.250000 1.000000
vt 0.750000 0.000000
vt 0.750000 0.000000
vt 1.000000 0.000000
vt 1.000000 0.000000
vt 0.750000 0.800000
vt 0.750000 1.000000
vt 1.000000 1.000000
vt 1.000000 0.800000
vt 0.750000 0.000000
vt 1.000000 0.000000
vt 0.250000 0.000000
vt 0.250000 0.000000
vt 0.250000 0.000000
vt 0.250000 0.000000
vt 0.500000 0.000000
vt 0.500000 0.000000
vt 0.250000 1.000000
vt 0.250000 0.800000
vt 0.500000 1.000000
vt 0.500000 0.800000
vt 0.250000 0.000000
vt 0.500000 0.000000
vt 0.750000 1.000000
vt 0.500000 1.000000
vt 0.500000 1.000000
vt 0.250000 0.800000
vt 0.500000 0.800000
vt 0.750000 0.200000
vt 0.500000 0.200000
vt 0.750000 0.400000
vt 0.500000 0.400000
vt 0.750000 0.600000
vt 0.500000 0.600000
vt 0.250000 0.200000
vt 0.250000 0.400000
vt 0.250000 0.600000
vt 0.500000 0.200000
vt 0.750000 0.200000
vt 0.500000 0.400000
vt 0.750000 0.400000
vt 0.500000 0.600000
vt 0.750000 0.600000
vt 0.250000 0.200000
vt 0.250000 0.400000
vt 0.250000 0.600000
vt 1.000000 0.200000
vt 1.000000 0.200000
vt 1.000000 0.400000
vt 1.000000 0.400000
vt 1.000000 0.600000
vt 1.000000 0.600000
vt 1.000000 0.800000
vt 1.000000 0.600000
vt 1.000000 0.200000
vt 1.000000 0.400000
vt 1.000000 0.600000
vt 1.000000 0.600000
vt 1.000000 0.800000
vt 0.250000 1.000000
vt 0.250000 1.000000
vt 0.500000 0.000000
vt 0.500000 1.000000
vt 1.000000 1.000000
vt 1.000000 0.000000
vt 0.500000 0.000000
vt 1.000000 0.000000
vt 1.000000 1.000000
vt 0.500000 1.000000
vt 0.000000 1.000000
vt 0.000000 1.000000
vt 0.500000 1.000000
vt 0.000000 0.000000
vt 0.000000 0.000000
vt 0.500000 0.000000
vt 0.500000 0.000000
vn 0.0000 0.0000 -1.0000
vn -1.0000 0.0000 0.0000
vn 0.0000 0.0000 1.0000
vn 0.0000 -1.0000 0.0000
vn 1.0000 0.0000 0.0000
vn 0.0000 1.0000 0.0000
vn -0.5813 -0.8137 0.0000
vn 0.5813 0.8137 0.0000
vn -0.5813 0.8137 0.0000
vn 0.5813 -0.8137 0.0000
usemtl CruzMetal
s off
f 79/1/1 16/2/1 4/3/1 42/4/1
f 5/5/2 9/6/2 90/7/2 88/8/2
f 42/4/3 4/3/3 8/9/3 50/10/3
f 38/11/3 1/12/3 6/13/3 46/14/3
f 18/15/3 3/16/3 5/5/3 24/17/3
f 15/18/3 2/19/3 7/20/3 21/21/3
f 70/22/3 58/23/3 12/24/3 28/25/3
f 21/21/4 7/20/4 11/26/4 27/27/4
f 50/10/5 8/9/5 12/24/5 58/23/5
f 46/14/2 6/13/2 10/28/2 54/29/2
f 19/30/5 25/31/5 34/32/5 33/33/5
f 19/30/4 20/34/4 26/35/4 25/31/4
f 20/34/4 21/21/4 27/27/4 26/35/4
f 51/36/3 62/37/3 30/38/3 9/6/3
f 62/37/3 66/39/3 29/40/3 30/38/3
f 66/39/3 70/22/3 28/25/3 29/40/3
f 1/12/3 13/41/3 19/30/3 6/13/3
f 13/41/3 14/42/3 20/34/3 19/30/3
f 14/42/3 15/18/3 21/21/3 20/34/3
f 4/3/3 16/2/3 22/43/3 8/9/3
f 16/2/3 17/44/3 23/45/3 22/43/3
f 17/44/3 18/15/3 24/17/3 23/45/3
f 8/9/6 22/43/6 28/25/6 12/24/6
f 22/43/6 23/45/6 29/40/6 28/25/6
f 23/45/6 24/17/6 30/38/6 29/40/6
f 35/46/1 3/16/1 18/15/1 71/47/1
f 71/47/1 18/15/1 17/44/1 75/48/1
f 75/48/1 17/44/1 16/2/1 79/1/1
f 32/49/4 33/33/4 34/32/4 31/50/4
f 25/31/3 10/28/3 31/50/3 34/32/3
f 10/28/2 6/13/2 32/49/2 31/50/2
f 6/13/1 19/30/1 33/33/1 32/49/1
f 14/42/1 78/51/1 82/52/1 15/18/1
f 78/51/1 77/53/1 81/54/1 82/52/1
f 77/53/1 76/55/1 80/56/1 81/54/1
f 76/55/1 75/48/1 79/1/1 80/56/1
f 13/41/1 74/57/1 78/51/1 14/42/1
f 74/57/1 73/58/1 77/53/1 78/51/1
f 73/58/1 72/59/1 76/55/1 77/53/1
f 72/59/1 71/47/1 75/48/1 76/55/1
f 1/12/1 38/11/1 74/57/1 13/41/1
f 38/11/1 37/60/1 73/58/1 74/57/1
f 37/60/1 36/61/1 72/59/1 73/58/1
f 36/61/1 35/46/1 71/47/1 72/59/1
f 26/35/3 27/27/3 67/62/3 63/63/3
f 63/63/3 67/62/3 68/64/3 64/65/3
f 64/65/3 68/64/3 69/66/3 65/67/3
f 65/67/3 69/66/3 70/22/3 66/39/3
f 25/31/3 26/35/3 63/63/3 59/68/3
f 59/68/3 63/63/3 64/65/3 60/69/3
f 60/69/3 64/65/3 65/67/3 61/70/3
f 61/70/3 65/67/3 66/39/3 62/37/3
f 10/28/3 25/31/3 59/68/3 54/29/3
f 54/29/3 59/68/3 60/69/3 53/71/3
f 53/71/3 60/69/3 61/70/3 52/72/3
f 52/72/3 61/70/3 62/37/3 51/36/3
f 5/5/2 43/73/2 51/36/2 9/6/2
f 43/73/2 44/74/2 52/72/2 51/36/2
f 44/74/2 45/75/2 53/71/2 52/72/2
f 45/75/2 46/14/2 54/29/2 53/71/2
f 7/20/5 47/76/5 55/77/5 11/26/5
f 47/76/5 48/78/5 56/79/5 55/77/5
f 48/78/5 49/80/5 57/81/5 56/79/5
f 58/23/3 57/81/3 85/82/3 86/83/3
f 27/27/3 11/26/3 55/77/3 67/62/3
f 67/62/3 55/77/3 56/79/3 68/64/3
f 68/64/3 56/79/3 57/81/3 69/66/3
f 69/66/3 57/81/3 58/23/3 70/22/3
f 3/16/3 35/46/3 43/73/3 5/5/3
f 35/46/3 36/61/3 44/74/3 43/73/3
f 36/61/3 37/60/3 45/75/3 44/74/3
f 37/60/3 38/11/3 46/14/3 45/75/3
f 2/19/3 39/84/3 47/76/3 7/20/3
f 39/84/3 40/85/3 48/78/3 47/76/3
f 40/85/3 41/86/3 49/80/3 48/78/3
f 41/86/3 42/4/3 50/10/3 49/80/3
f 15/18/1 82/52/1 39/84/1 2/19/1
f 82/52/1 81/54/1 40/85/1 39/84/1
f 81/54/1 80/56/1 41/86/1 40/85/1
f 80/56/1 79/1/1 42/4/1 41/86/1
f 83/87/5 84/88/5 86/83/5 85/82/5
f 57/81/4 49/80/4 83/87/4 85/82/4
f 49/80/1 50/10/1 84/88/1 83/87/1
f 50/10/6 58/23/6 86/83/6 84/88/6
f 87/89/6 88/8/6 90/7/6 89/90/6
f 30/38/5 24/17/5 87/89/5 89/90/5
f 9/6/3 30/38/3 89/90/3 90/7/3
f 24/17/1 5/5/1 88/8/1 87/89/1
f 149/91/1 120/92/1 92/93/1 100/94/1
f 120/92/3 124/95/3 94/96/3 92/93/3
f 102/97/3 108/98/3 5/5/3 3/16/3
f 99/99/3 105/100/3 93/101/3 91/102/3
f 140/103/3 112/104/3 96/105/3 128/106/3
f 105/100/4 111/107/4 95/108/4 93/101/4
f 124/95/2 128/106/2 96/105/2 94/96/2
f 103/109/2 115/110/2 116/111/2 109/112/2
f 103/109/4 109/112/4 110/113/4 104/114/4
f 104/114/4 110/113/4 111/107/4 105/100/4
f 51/36/3 9/6/3 114/115/3 132/116/3
f 132/116/3 114/115/3 113/117/3 136/118/3
f 136/118/3 113/117/3 112/104/3 140/103/3
f 1/12/3 6/13/3 103/109/3 97/119/3
f 97/119/3 103/109/3 104/114/3 98/120/3
f 98/120/3 104/114/3 105/100/3 99/99/3
f 92/93/3 94/96/3 106/121/3 100/94/3
f 100/94/3 106/121/3 107/122/3 101/123/3
f 101/123/3 107/122/3 108/98/3 102/97/3
f 94/96/6 96/105/6 112/104/6 106/121/6
f 106/121/6 112/104/6 113/117/6 107/122/6
f 107/122/6 113/117/6 114/115/6 108/98/6
f 35/46/1 141/124/1 102/97/1 3/16/1
f 141/124/1 145/125/1 101/123/1 102/97/1
f 145/125/1 149/91/1 100/94/1 101/123/1
f 32/49/4 31/50/4 116/111/4 115/110/4
f 109/112/3 116/111/3 31/50/3 10/28/3
f 6/13/1 32/49/1 115/110/1 103/109/1
f 98/120/1 99/99/1 152/126/1 148/127/1
f 148/127/1 152/126/1 151/128/1 147/129/1
f 147/129/1 151/128/1 150/130/1 146/131/1
f 146/131/1 150/130/1 149/91/1 145/125/1
f 97/119/1 98/120/1 148/127/1 144/132/1
f 144/132/1 148/127/1 147/129/1 143/133/1
f 143/133/1 147/129/1 146/131/1 142/134/1
f 142/134/1 146/131/1 145/125/1 141/124/1
f 1/12/1 97/119/1 144/132/1 38/11/1
f 38/11/1 144/132/1 143/133/1 37/60/1
f 37/60/1 143/133/1 142/134/1 36/61/1
f 36/61/1 142/134/1 141/124/1 35/46/1
f 110/113/3 133/135/3 137/136/3 111/107/3
f 133/135/3 134/137/3 138/138/3 137/136/3
f 134/137/3 135/139/3 139/140/3 138/138/3
f 135/139/3 136/118/3 140/103/3 139/140/3
f 109/112/3 129/141/3 133/135/3 110/113/3
f 129/141/3 130/142/3 134/137/3 133/135/3
f 130/142/3 131/143/3 135/139/3 134/137/3
f 131/143/3 132/116/3 136/118/3 135/139/3
f 10/28/3 54/29/3 129/141/3 109/112/3
f 54/29/3 53/71/3 130/142/3 129/141/3
f 53/71/3 52/72/3 131/143/3 130/142/3
f 52/72/3 51/36/3 132/116/3 131/143/3
f 93/101/2 95/108/2 125/144/2 121/145/2
f 121/145/2 125/144/2 126/146/2 122/147/2
f 122/147/2 126/146/2 127/148/2 123/149/2
f 128/106/3 156/150/3 155/151/3 127/148/3
f 111/107/3 137/136/3 125/144/3 95/108/3
f 137/136/3 138/138/3 126/146/3 125/144/3
f 138/138/3 139/140/3 127/148/3 126/146/3
f 139/140/3 140/103/3 128/106/3 127/148/3
f 91/102/3 93/101/3 121/145/3 117/152/3
f 117/152/3 121/145/3 122/147/3 118/153/3
f 118/153/3 122/147/3 123/149/3 119/154/3
f 119/154/3 123/149/3 124/95/3 120/92/3
f 99/99/1 91/102/1 117/152/1 152/126/1
f 152/126/1 117/152/1 118/153/1 151/128/1
f 151/128/1 118/153/1 119/154/1 150/130/1
f 150/130/1 119/154/1 120/92/1 149/91/1
f 153/155/2 155/151/2 156/150/2 154/156/2
f 127/148/4 155/151/4 153/155/4 123/149/4
f 123/149/1 153/155/1 154/156/1 124/95/1
f 124/95/6 154/156/6 156/150/6 128/106/6
f 157/157/6 158/158/6 90/7/6 88/8/6
f 114/115/2 158/158/2 157/157/2 108/98/2
f 9/6/3 90/7/3 158/158/3 114/115/3
f 108/98/1 157/157/1 88/8/1 5/5/1
f 171/159/7 168/160/7 162/161/7 160/162/7
f 172/163/8 165/164/8 166/165/8 173/166/8
f 168/160/1 161/167/1 163/168/1 170/169/1
f 171/159/3 160/162/3 165/164/3 172/163/3
f 160/162/5 162/161/5 166/165/5 165/164/5
f 161/167/2 159/170/2 164/171/2 163/168/2
f 159/170/3 167/172/3 169/173/3 164/171/3
f 162/161/1 168/160/1 173/166/1 166/165/1
f 164/171/9 169/173/9 170/169/9 163/168/9
f 159/170/10 161/167/10 168/160/10 167/172/10
