# Blender v3.0.1 OBJ File: 'Tumbas.blend'
# www.blender.org
mtllib Decor2.mtl
o Decor2_Plane.004
v -0.052635 0.420387 -1.103658
v 0.000000 0.420387 -1.103658
v -0.052635 0.420387 -1.127096
v 0.000000 0.420387 -1.127096
v -0.052635 0.463140 -1.127096
v -0.052635 0.463140 -1.103658
v 0.000000 0.463140 -1.103658
v 0.000000 0.463140 -1.127096
v -0.079744 0.972723 -1.127096
v -0.079744 0.972723 -1.103658
v 0.000000 1.099651 -1.103658
v 0.000000 1.049335 -1.127096
v 0.000000 0.824679 -1.127096
v 0.000000 0.863592 -1.127096
v 0.000000 0.863592 -1.103658
v 0.000000 0.824679 -1.103658
v -0.052635 0.824679 -1.103658
v -0.052635 0.863592 -1.103658
v -0.052635 0.863592 -1.127096
v -0.052635 0.824679 -1.127096
v -0.286465 0.805443 -1.103658
v -0.286465 0.882828 -1.103658
v -0.286465 0.882828 -1.127096
v -0.286465 0.805443 -1.127096
v -0.228893 0.824679 -1.103658
v -0.228893 0.824679 -1.127096
v -0.228893 0.863592 -1.127096
v -0.228893 0.863592 -1.103658
v 0.000000 0.844136 -1.127096
v 0.000000 0.844136 -1.103658
v -0.052635 0.844136 -1.103658
v -0.052635 0.844136 -1.127096
v -0.330972 0.844136 -1.103658
v -0.330972 0.844136 -1.127096
v -0.228893 0.844136 -1.103658
v -0.228893 0.844136 -1.127096
v -0.025912 0.420387 -1.103658
v -0.025912 0.420387 -1.127096
v -0.025912 0.463140 -1.103658
v -0.025912 0.463140 -1.127096
v -0.025912 1.061345 -1.103658
v -0.025912 1.011029 -1.127096
v -0.025912 0.824679 -1.103658
v -0.025912 0.863592 -1.103658
v -0.025912 0.824679 -1.127096
v -0.025912 0.863592 -1.127096
v -0.025912 0.844136 -1.127096
v -0.025912 0.844136 -1.103658
v 0.000000 0.956362 -1.127096
v -0.052635 0.918098 -1.103658
v 0.000000 1.006678 -1.103658
v -0.052635 0.918098 -1.127096
v -0.025912 0.937230 -1.103658
v -0.025912 0.937230 -1.127096
v 0.052635 0.420387 -1.103658
v 0.052635 0.420387 -1.127096
v 0.052635 0.463140 -1.127096
v 0.052635 0.463140 -1.103658
v 0.079744 0.972723 -1.127096
v 0.079744 0.972723 -1.103658
v 0.052635 0.824679 -1.103658
v 0.052635 0.863592 -1.103658
v 0.052635 0.863592 -1.127096
v 0.052635 0.824679 -1.127096
v 0.286465 0.805443 -1.103658
v 0.286465 0.882828 -1.103658
v 0.286465 0.882828 -1.127096
v 0.286465 0.805443 -1.127096
v 0.228893 0.824679 -1.103658
v 0.228893 0.824679 -1.127096
v 0.228893 0.863592 -1.127096
v 0.228893 0.863592 -1.103658
v 0.052635 0.844136 -1.103658
v 0.052635 0.844136 -1.127096
v 0.330972 0.844136 -1.103658
v 0.330972 0.844136 -1.127096
v 0.228893 0.844136 -1.103658
v 0.228893 0.844136 -1.127096
v 0.025912 0.420387 -1.103658
v 0.025912 0.420387 -1.127096
v 0.025912 0.463140 -1.103658
v 0.025912 0.463140 -1.127096
v 0.025912 1.061345 -1.103658
v 0.025912 1.011029 -1.127096
v 0.025912 0.824679 -1.103658
v 0.025912 0.863592 -1.103658
v 0.025912 0.824679 -1.127096
v 0.025912 0.863592 -1.127096
v 0.025912 0.844136 -1.127096
v 0.025912 0.844136 -1.103658
v 0.052635 0.918098 -1.103658
v 0.052635 0.918098 -1.127096
v 0.025912 0.937230 -1.103658
v 0.025912 0.937230 -1.127096
v 0.591382 0.398477 -1.385573
v 0.739874 0.398477 -1.385573
v 0.591382 0.398477 -1.534065
v 0.739874 0.398477 -1.534065
v 0.587001 0.727310 -1.538446
v 0.587001 0.727310 -1.381192
v 0.744255 0.727310 -1.381192
v 0.744255 0.727310 -1.538446
v 0.549537 0.727310 -1.575909
v 0.549537 0.727310 -1.343729
v 0.781718 0.727310 -1.343729
v 0.781718 0.727310 -1.575909
v 0.622655 0.472098 -1.502792
v 0.622655 0.472098 -1.416847
v 0.708600 0.472098 -1.416847
v 0.708600 0.472098 -1.502792
v -0.591382 0.398477 -1.385573
v -0.739873 0.398477 -1.385573
v -0.591382 0.398477 -1.534065
v -0.739873 0.398477 -1.534065
v -0.587001 0.727310 -1.538446
v -0.587001 0.727310 -1.381192
v -0.744255 0.727310 -1.381192
v -0.744255 0.727310 -1.538446
v -0.549537 0.727310 -1.575909
v -0.549537 0.727310 -1.343729
v -0.781718 0.727310 -1.343729
v -0.781718 0.727310 -1.575909
v -0.622655 0.472098 -1.502792
v -0.622655 0.472098 -1.416847
v -0.708600 0.472098 -1.416847
v -0.708600 0.472098 -1.502792
v 0.591382 0.398477 1.385573
v 0.739874 0.398477 1.385573
v 0.591382 0.398477 1.534065
v 0.739874 0.398477 1.534065
v 0.587001 0.727310 1.538446
v 0.587001 0.727310 1.381192
v 0.744255 0.727310 1.381192
v 0.744255 0.727310 1.538446
v 0.549537 0.727310 1.575909
v 0.549537 0.727310 1.343729
v 0.781718 0.727310 1.343729
v 0.781718 0.727310 1.575909
v 0.622655 0.472098 1.502792
v 0.622655 0.472098 1.416847
v 0.708600 0.472098 1.416847
v 0.708600 0.472098 1.502792
v -0.591382 0.398477 1.385573
v -0.739873 0.398477 1.385573
v -0.591382 0.398477 1.534065
v -0.739873 0.398477 1.534065
v -0.587001 0.727310 1.538446
v -0.587001 0.727310 1.381192
v -0.744255 0.727310 1.381192
v -0.744255 0.727310 1.538446
v -0.549537 0.727310 1.575909
v -0.549537 0.727310 1.343729
v -0.781718 0.727310 1.343729
v -0.781718 0.727310 1.575909
v -0.622655 0.472098 1.502792
v -0.622655 0.472098 1.416847
v -0.708600 0.472098 1.416847
v -0.708600 0.472098 1.502792
vt 0.500000 0.000000
vt 0.500000 1.000000
vt 1.000000 1.000000
vt 1.000000 0.000000
vt 1.000000 0.000000
vt 1.000000 1.000000
vt 1.000000 1.000000
vt 1.000000 0.000000
vt 1.000000 1.000000
vt 1.000000 0.000000
vt 0.000000 1.000000
vt 0.000000 0.000000
vt 0.000000 0.000000
vt 0.000000 1.000000
vt 0.500000 1.000000
vt 0.500000 0.000000
vt 0.500000 0.000000
vt 0.500000 1.000000
vt -0.000000 1.000000
vt 0.000000 0.000000
vt 0.000000 0.000000
vt 0.000000 1.000000
vt 0.500000 1.000000
vt 0.500000 0.000000
vt 1.000000 0.000000
vt 0.500000 0.000000
vt 0.500000 0.000000
vt 1.000000 0.000000
vt 1.000000 0.000000
vt 0.500000 0.000000
vt 0.000000 1.000000
vt 0.500000 1.000000
vt 0.500000 1.000000
vt 0.000000 1.000000
vt 0.000000 1.000000
vt 0.500000 1.000000
vt 0.000000 0.000000
vt 0.000000 1.000000
vt 0.000000 0.000000
vt 0.000000 0.000000
vt 0.000000 1.000000
vt 1.000000 1.000000
vt 1.000000 1.000000
vt 1.000000 1.000000
vt 0.000000 1.000000
vt 0.000000 0.000000
vt 0.000000 0.000000
vt 0.000000 1.000000
vt 0.000000 0.000000
vt 0.000000 1.000000
vt 0.000000 1.000000
vt 0.000000 0.000000
vt 0.000000 0.000000
vt 0.000000 0.000000
vt 0.500000 0.000000
vt 0.500000 1.000000
vt 0.000000 1.000000
vt 0.000000 1.000000
vt 0.000000 0.000000
vt 0.000000 0.000000
vt 0.500000 1.000000
vt 0.500000 0.000000
vt 0.500000 0.000000
vt 0.500000 1.000000
vt -0.000000 1.000000
vt 0.000000 1.000000
vt 0.000000 0.000000
vt 0.000000 0.000000
vt 0.500000 1.000000
vt 0.500000 0.000000
vt 0.500000 0.000000
vt 0.500000 0.000000
vt 0.500000 0.000000
vt 0.500000 1.000000
vt 0.000000 1.000000
vt 0.500000 1.000000
vt 0.500000 1.000000
vt 0.000000 1.000000
vt 0.000000 1.000000
vt 0.000000 0.000000
vt 0.000000 1.000000
vt 0.000000 1.000000
vt 0.000000 0.000000
vt 0.000000 0.000000
vt 0.000000 1.000000
vt 0.000000 1.000000
vt 0.000000 0.000000
vt 0.000000 0.000000
vt 0.000000 0.000000
vt 0.000000 1.000000
vt 0.000000 1.000000
vt 0.000000 0.000000
vt 0.000000 0.000000
vt 0.000000 0.000000
vt 0.000000 0.000000
vt 0.000000 1.000000
vt 1.000000 1.000000
vt 1.000000 0.000000
vt 0.838646 0.161354
vt 0.838646 0.838646
vt 0.838646 0.838646
vt 0.838646 0.161354
vt 1.000000 1.000000
vt 1.000000 0.000000
vt 0.000000 0.000000
vt 0.000000 1.000000
vt 0.161354 0.161354
vt 0.161354 0.838646
vt 0.161354 0.161354
vt 0.161354 0.838646
vt 0.000000 0.000000
vt 1.000000 0.000000
vt 1.000000 1.000000
vt 0.000000 1.000000
vt 0.838646 0.161354
vt 0.838646 0.161354
vt 0.838646 0.838646
vt 0.838646 0.838646
vt 1.000000 0.000000
vt 1.000000 1.000000
vt 0.000000 1.000000
vt 0.000000 0.000000
vt 0.161354 0.161354
vt 0.161354 0.838646
vt 0.161354 0.161354
vt 0.161354 0.838646
vt 0.000000 0.000000
vt 1.000000 0.000000
vt 1.000000 1.000000
vt 0.000000 1.000000
vt 0.838646 0.161354
vt 0.838646 0.161354
vt 0.838646 0.838646
vt 0.838646 0.838646
vt 1.000000 0.000000
vt 1.000000 1.000000
vt 0.000000 1.000000
vt 0.000000 0.000000
vt 0.161354 0.161354
vt 0.161354 0.838646
vt 0.161354 0.161354
vt 0.161354 0.838646
vt 0.000000 0.000000
vt 0.000000 1.000000
vt 1.000000 1.000000
vt 1.000000 0.000000
vt 0.838646 0.161354
vt 0.838646 0.838646
vt 0.838646 0.838646
vt 0.838646 0.161354
vt 1.000000 1.000000
vt 1.000000 0.000000
vt 0.000000 0.000000
vt 0.000000 1.000000
vt 0.161354 0.161354
vt 0.161354 0.838646
vt 0.161354 0.161354
vt 0.161354 0.838646
vn 0.0000 -1.0000 0.0000
vn 1.0000 0.0000 0.0000
vn -1.0000 0.0000 0.0000
vn 0.0000 0.0000 -1.0000
vn 0.0000 0.0000 1.0000
vn -0.5295 0.3582 -0.7690
vn -0.8958 -0.4445 0.0000
vn 0.3169 -0.9485 0.0000
vn -0.6561 0.7547 0.0000
vn 0.3169 0.9485 0.0000
vn 0.0000 1.0000 0.0000
vn -0.6561 -0.7547 0.0000
vn -0.6264 0.5313 -0.5704
vn 0.5295 0.3582 -0.7690
vn 0.8958 -0.4445 0.0000
vn -0.3169 -0.9485 0.0000
vn 0.6561 0.7547 0.0000
vn -0.3169 0.9485 0.0000
vn 0.6561 -0.7547 0.0000
vn 0.6264 0.5313 -0.5704
vn -0.9904 0.1384 0.0000
vn 0.9920 -0.1262 0.0000
vn -0.9920 -0.1262 0.0000
vn 0.0000 -0.1262 -0.9920
vn 0.0000 -0.1262 0.9920
vn 0.9904 0.1384 0.0000
vn 0.0000 0.1384 0.9904
vn 0.0000 0.1384 -0.9904
usemtl Piedra
s off
f 37/1/1 38/2/1 4/3/1 2/4/1
f 51/5/2 49/6/2 12/7/2 11/8/2
f 2/4/2 4/3/2 8/9/2 7/10/2
f 3/11/3 1/12/3 6/13/3 5/14/3
f 38/2/4 3/11/4 5/14/4 40/15/4
f 37/1/5 2/4/5 7/10/5 39/16/5
f 41/17/6 11/8/6 12/7/6 42/18/6
f 52/19/7 50/20/7 10/21/7 9/22/7
f 54/23/4 52/19/4 9/22/4 42/18/4
f 53/24/5 51/5/5 11/8/5 41/17/5
f 39/16/5 7/10/5 16/25/5 43/26/5
f 48/27/5 30/28/5 15/29/5 44/30/5
f 40/15/4 5/14/4 20/31/4 45/32/4
f 47/33/4 32/34/4 19/35/4 46/36/4
f 5/14/3 6/13/3 17/37/3 20/31/3
f 26/38/8 25/39/8 21/40/8 24/41/8
f 7/10/2 8/9/2 13/42/2 16/25/2
f 30/28/2 29/43/2 14/44/2 15/29/2
f 34/45/9 33/46/9 22/47/9 23/48/9
f 28/49/10 27/50/10 23/48/10 22/47/10
f 36/51/4 26/38/4 24/41/4 34/45/4
f 35/52/5 28/49/5 22/47/5 33/46/5
f 31/53/5 18/54/5 28/49/5 35/52/5
f 32/34/4 20/31/4 26/38/4 36/51/4
f 18/54/11 19/35/11 27/50/11 28/49/11
f 20/31/1 17/37/1 25/39/1 26/38/1
f 19/35/4 32/34/4 36/51/4 27/50/4
f 17/37/5 31/53/5 35/52/5 25/39/5
f 25/39/5 35/52/5 33/46/5 21/40/5
f 27/50/4 36/51/4 34/45/4 23/48/4
f 24/41/12 21/40/12 33/46/12 34/45/12
f 16/25/2 13/42/2 29/43/2 30/28/2
f 45/32/4 20/31/4 32/34/4 47/33/4
f 43/26/5 16/25/5 30/28/5 48/27/5
f 17/37/5 43/26/5 48/27/5 31/53/5
f 13/42/4 45/32/4 47/33/4 29/43/4
f 29/43/4 47/33/4 46/36/4 14/44/4
f 8/9/4 40/15/4 45/32/4 13/42/4
f 31/53/5 48/27/5 44/30/5 18/54/5
f 6/13/5 39/16/5 43/26/5 17/37/5
f 50/20/5 53/24/5 41/17/5 10/21/5
f 49/6/4 54/23/4 42/18/4 12/7/4
f 10/21/13 41/17/13 42/18/13 9/22/13
f 1/12/5 37/1/5 39/16/5 6/13/5
f 4/3/4 38/2/4 40/15/4 8/9/4
f 1/12/1 3/11/1 38/2/1 37/1/1
f 14/44/4 46/36/4 54/23/4 49/6/4
f 18/54/5 44/30/5 53/24/5 50/20/5
f 44/30/5 15/29/5 51/5/5 53/24/5
f 46/36/4 19/35/4 52/19/4 54/23/4
f 19/35/3 18/54/3 50/20/3 52/19/3
f 15/29/2 14/44/2 49/6/2 51/5/2
f 79/55/1 2/4/1 4/3/1 80/56/1
f 56/57/2 57/58/2 58/59/2 55/60/2
f 80/56/4 82/61/4 57/58/4 56/57/4
f 79/55/5 81/62/5 7/10/5 2/4/5
f 83/63/14 84/64/14 12/7/14 11/8/14
f 92/65/15 59/66/15 60/67/15 91/68/15
f 94/69/4 84/64/4 59/66/4 92/65/4
f 93/70/5 83/63/5 11/8/5 51/5/5
f 81/62/5 85/71/5 16/25/5 7/10/5
f 90/72/5 86/73/5 15/29/5 30/28/5
f 82/61/4 87/74/4 64/75/4 57/58/4
f 89/76/4 88/77/4 63/78/4 74/79/4
f 57/58/2 64/75/2 61/80/2 58/59/2
f 70/81/16 68/82/16 65/83/16 69/84/16
f 76/85/17 67/86/17 66/87/17 75/88/17
f 72/89/18 66/87/18 67/86/18 71/90/18
f 78/91/4 76/85/4 68/82/4 70/81/4
f 77/92/5 75/88/5 66/87/5 72/89/5
f 73/93/5 77/92/5 72/89/5 62/94/5
f 74/79/4 78/91/4 70/81/4 64/75/4
f 62/94/11 72/89/11 71/90/11 63/78/11
f 64/75/1 70/81/1 69/84/1 61/80/1
f 63/78/4 71/90/4 78/91/4 74/79/4
f 61/80/5 69/84/5 77/92/5 73/93/5
f 69/84/5 65/83/5 75/88/5 77/92/5
f 71/90/4 67/86/4 76/85/4 78/91/4
f 68/82/19 76/85/19 75/88/19 65/83/19
f 87/74/4 89/76/4 74/79/4 64/75/4
f 85/71/5 90/72/5 30/28/5 16/25/5
f 61/80/5 73/93/5 90/72/5 85/71/5
f 13/42/4 29/43/4 89/76/4 87/74/4
f 29/43/4 14/44/4 88/77/4 89/76/4
f 8/9/4 13/42/4 87/74/4 82/61/4
f 73/93/5 62/94/5 86/73/5 90/72/5
f 58/59/5 61/80/5 85/71/5 81/62/5
f 91/68/5 60/67/5 83/63/5 93/70/5
f 49/6/4 12/7/4 84/64/4 94/69/4
f 60/67/20 59/66/20 84/64/20 83/63/20
f 55/60/5 58/59/5 81/62/5 79/55/5
f 4/3/4 8/9/4 82/61/4 80/56/4
f 55/60/1 79/55/1 80/56/1 56/57/1
f 14/44/4 49/6/4 94/69/4 88/77/4
f 62/94/5 91/68/5 93/70/5 86/73/5
f 86/73/5 93/70/5 51/5/5 15/29/5
f 88/77/4 94/69/4 92/65/4 63/78/4
f 63/78/2 92/65/2 91/68/2 62/94/2
f 95/95/1 97/96/1 98/97/1 96/98/1
f 101/99/21 102/100/21 110/101/21 109/102/21
f 96/98/22 98/97/22 106/103/22 105/104/22
f 97/96/23 95/95/23 104/105/23 103/106/23
f 98/97/24 97/96/24 103/106/24 106/103/24
f 95/95/25 96/98/25 105/104/25 104/105/25
f 100/107/11 99/108/11 103/106/11 104/105/11
f 101/99/11 100/107/11 104/105/11 105/104/11
f 102/100/11 101/99/11 105/104/11 106/103/11
f 99/108/11 102/100/11 106/103/11 103/106/11
f 108/109/11 109/102/11 110/101/11 107/110/11
f 99/108/26 100/107/26 108/109/26 107/110/26
f 102/100/27 99/108/27 107/110/27 110/101/27
f 100/107/28 101/99/28 109/102/28 108/109/28
f 111/111/1 112/112/1 114/113/1 113/114/1
f 117/115/26 125/116/26 126/117/26 118/118/26
f 112/112/23 121/119/23 122/120/23 114/113/23
f 113/114/22 119/121/22 120/122/22 111/111/22
f 114/113/24 122/120/24 119/121/24 113/114/24
f 111/111/25 120/122/25 121/119/25 112/112/25
f 116/123/11 120/122/11 119/121/11 115/124/11
f 117/115/11 121/119/11 120/122/11 116/123/11
f 118/118/11 122/120/11 121/119/11 117/115/11
f 115/124/11 119/121/11 122/120/11 118/118/11
f 124/125/11 123/126/11 126/117/11 125/116/11
f 115/124/21 123/126/21 124/125/21 116/123/21
f 118/118/27 126/117/27 123/126/27 115/124/27
f 116/123/28 124/125/28 125/116/28 117/115/28
f 127/127/1 128/128/1 130/129/1 129/130/1
f 133/131/21 141/132/21 142/133/21 134/134/21
f 128/128/22 137/135/22 138/136/22 130/129/22
f 129/130/23 135/137/23 136/138/23 127/127/23
f 130/129/25 138/136/25 135/137/25 129/130/25
f 127/127/24 136/138/24 137/135/24 128/128/24
f 132/139/11 136/138/11 135/137/11 131/140/11
f 133/131/11 137/135/11 136/138/11 132/139/11
f 134/134/11 138/136/11 137/135/11 133/131/11
f 131/140/11 135/137/11 138/136/11 134/134/11
f 140/141/11 139/142/11 142/133/11 141/132/11
f 131/140/26 139/142/26 140/141/26 132/139/26
f 134/134/28 142/133/28 139/142/28 131/140/28
f 132/139/27 140/141/27 141/132/27 133/131/27
f 143/143/1 145/144/1 146/145/1 144/146/1
f 149/147/26 150/148/26 158/149/26 157/150/26
f 144/146/23 146/145/23 154/151/23 153/152/23
f 145/144/22 143/143/22 152/153/22 151/154/22
f 146/145/25 145/144/25 151/154/25 154/151/25
f 143/143/24 144/146/24 153/152/24 152/153/24
f 148/155/11 147/156/11 151/154/11 152/153/11
f 149/147/11 148/155/11 152/153/11 153/152/11
f 150/148/11 149/147/11 153/152/11 154/151/11
f 147/156/11 150/148/11 154/151/11 151/154/11
f 156/157/11 157/150/11 158/149/11 155/158/11
f 147/156/21 148/155/21 156/157/21 155/158/21
f 150/148/28 147/156/28 155/158/28 158/149/28
f 148/155/27 149/147/27 157/150/27 156/157/27
