# Blender v3.0.1 OBJ File: 'Tumbas.blend'
# www.blender.org
mtllib Decor1.mtl
o Decor1_Plane.003
v -0.379436 0.435846 -0.666277
v 0.339719 0.435846 -0.666277
v -0.379436 0.435846 -1.160159
v 0.339719 0.435846 -1.160159
v -0.338317 0.466790 -1.131920
v -0.338317 0.466790 -0.694516
v 0.298600 0.466790 -0.694516
v 0.298600 0.466790 -1.131920
v -0.019858 0.435846 -0.666277
v -0.019858 0.435846 -1.160159
v -0.019858 0.466790 -0.694516
v -0.019858 0.466790 -1.131920
v -0.379436 0.466790 -1.160159
v -0.379436 0.466790 -0.666277
v -0.019858 0.466790 -0.666277
v 0.339719 0.466790 -0.666277
v 0.339719 0.466790 -1.160159
v -0.019858 0.466790 -1.160159
v -0.019858 0.495575 -0.694516
v -0.019858 0.495575 -1.131920
v -0.338317 0.490019 -1.131920
v -0.338317 0.490019 -0.694516
v 0.298600 0.490019 -0.694516
v 0.298600 0.490019 -1.131920
v -0.325870 0.435913 -1.159758
v 0.281105 0.435913 -1.159758
v -0.325870 0.435913 -1.262226
v 0.281105 0.435913 -1.262226
v -0.305926 0.473478 -1.248529
v -0.305926 0.473478 -1.173455
v 0.261160 0.473478 -1.173455
v 0.261160 0.473478 -1.248529
v -0.325870 0.473478 -1.262226
v -0.325870 0.473478 -1.159758
v 0.281105 0.473478 -1.159758
v 0.281105 0.473478 -1.262226
v -0.305926 1.078395 -1.248529
v -0.259860 1.180600 -1.248529
v -0.299754 1.129498 -1.248529
v -0.282893 1.166907 -1.248529
v -0.259860 1.180600 -1.173455
v -0.305926 1.078395 -1.173455
v -0.282893 1.166907 -1.173455
v -0.299754 1.129498 -1.173455
v 0.261160 1.062129 -1.173455
v 0.207763 1.180600 -1.173455
v 0.254006 1.121365 -1.173455
v 0.234462 1.164728 -1.173455
v 0.207763 1.180600 -1.248529
v 0.261160 1.062129 -1.248529
v 0.234462 1.164728 -1.248529
v 0.254006 1.121365 -1.248529
v -0.139718 0.435846 -1.160159
v -0.259577 0.435846 -1.160159
v -0.139718 0.466790 -1.160159
v -0.259577 0.466790 -1.160159
v -0.259577 0.435846 -0.666277
v -0.139718 0.435846 -0.666277
v -0.259577 0.466790 -0.666277
v -0.139718 0.466790 -0.666277
v -0.126011 0.466790 -1.131920
v -0.232164 0.466790 -1.131920
v -0.232164 0.466790 -0.694516
v -0.126011 0.466790 -0.694516
v -0.126011 0.502184 -1.131920
v -0.126011 0.502184 -0.694516
v 0.100001 0.435846 -0.666277
v 0.219860 0.435846 -0.666277
v 0.100001 0.466790 -0.666277
v 0.219860 0.466790 -0.666277
v 0.219860 0.435846 -1.160159
v 0.100001 0.435846 -1.160159
v 0.219860 0.466790 -1.160159
v 0.100001 0.466790 -1.160159
v 0.086294 0.466790 -0.694516
v 0.192447 0.466790 -0.694516
v 0.192447 0.466790 -1.131920
v 0.086294 0.466790 -1.131920
v 0.086294 0.502184 -0.694516
v 0.086294 0.502184 -1.131920
v -0.292843 0.498062 -1.131920
v -0.171316 0.505005 -1.131920
v -0.232164 0.466830 -1.131920
v -0.254352 0.502920 -1.131920
v -0.209870 0.505462 -1.131920
v -0.171316 0.505005 -0.694516
v -0.292843 0.498062 -0.694516
v -0.232164 0.466830 -0.694516
v -0.209870 0.505462 -0.694516
v -0.254352 0.502920 -0.694516
v 0.265839 0.495814 -0.694516
v 0.118851 0.504211 -0.694516
v 0.192447 0.466830 -0.694516
v 0.219283 0.501690 -0.694516
v 0.165482 0.504764 -0.694516
v 0.118851 0.504211 -1.131920
v 0.265839 0.495814 -1.131920
v 0.192447 0.466830 -1.131920
v 0.165482 0.504764 -1.131920
v 0.219283 0.501690 -1.131920
vt 0.833333 0.000000
vt 0.833333 1.000000
vt 1.000000 1.000000
vt 1.000000 0.000000
vt 0.942823 0.942823
vt 0.795215 0.942823
vt 0.795215 0.942823
vt 0.897269 0.942823
vt 0.942823 0.942823
vt 1.000000 0.000000
vt 0.833333 0.000000
vt 1.000000 1.000000
vt 0.000000 1.000000
vt 0.000000 0.000000
vt 0.000000 0.000000
vt 0.000000 1.000000
vt 0.166667 1.000000
vt 0.166667 1.000000
vt 0.666667 1.000000
vt 0.500000 1.000000
vt 0.500000 1.000000
vt 0.666667 1.000000
vt 0.333333 0.000000
vt 0.500000 0.000000
vt 0.500000 0.000000
vt 0.333333 0.000000
vt 0.057177 0.057177
vt 0.204785 0.057177
vt 0.204785 0.057177
vt 0.120409 0.057177
vt 0.057177 0.057177
vt 0.333333 1.000000
vt 0.057177 0.942823
vt 0.647608 0.057177
vt 0.500000 0.057177
vt 0.666667 0.000000
vt 0.942823 0.057177
vt 0.352392 0.942823
vt 0.500000 0.942823
vt 0.333333 1.000000
vt 0.166667 0.000000
vt 0.833333 1.000000
vt 0.795215 0.057177
vt 0.795215 0.057177
vt 0.692878 0.057177
vt 0.647608 0.057177
vt 0.352392 0.057177
vt 0.500000 0.057177
vt 0.500000 0.942823
vt 0.352392 0.942823
vt 0.352392 0.057177
vt 0.942823 0.057177
vt 0.057177 0.942823
vt 0.647608 0.942823
vt 0.647608 0.942823
vt 0.000000 0.000000
vt 0.000000 1.000000
vt 1.000000 1.000000
vt 1.000000 0.000000
vt 0.967141 0.866328
vt 0.032859 0.866328
vt 0.032859 0.866328
vt 0.036248 0.866328
vt 0.070806 0.866328
vt 0.108753 0.866328
vt 0.879169 0.866328
vt 0.923154 0.866328
vt 0.963212 0.866328
vt 0.967141 0.866328
vt 1.000000 0.000000
vt 0.000000 0.000000
vt 1.000000 1.000000
vt 0.000000 1.000000
vt 0.032859 0.133672
vt 0.967141 0.133672
vt 0.032859 0.133672
vt 0.967141 0.133672
vt 0.963212 0.133672
vt 0.923154 0.133672
vt 0.879169 0.133672
vt 0.108753 0.133672
vt 0.070806 0.133672
vt 0.036248 0.133672
vt 0.289395 0.057177
vt 0.204785 0.942823
vt 0.204785 0.942823
vt 0.289395 0.942823
vt 0.120409 0.942823
vt 0.166667 0.000000
vt 0.692878 0.942823
vt 0.897269 0.057177
vt 0.666667 0.000000
vt 0.173836 0.942823
vt 0.235425 0.942823
vt 0.288673 0.942822
vt 0.235820 0.057177
vt 0.174060 0.057177
vt 0.120664 0.057177
vt 0.235820 0.942823
vt 0.173836 0.057177
vt 0.832648 0.057177
vt 0.758156 0.057177
vt 0.693752 0.057177
vt 0.757678 0.942823
vt 0.832377 0.942823
vt 0.896960 0.942823
vt 0.832648 0.942823
vt 0.757678 0.057177
vn 0.0000 -1.0000 0.0000
vn 0.0000 0.0000 -1.0000
vn 0.0000 0.0000 1.0000
vn 1.0000 0.0000 0.0000
vn -1.0000 0.0000 0.0000
vn 0.0000 1.0000 0.0000
vn 0.0621 0.9981 0.0000
vn -0.9928 0.1199 0.0000
vn -0.9117 0.4109 0.0000
vn -0.5110 0.8596 0.0000
vn 0.9928 0.1199 0.0000
vn 0.9117 0.4109 0.0000
vn 0.5110 0.8596 0.0000
vn -0.0621 0.9981 0.0000
vn 0.0118 0.9999 0.0000
vn -0.0570 0.9984 0.0000
vn -0.1252 0.9921 0.0000
vn -0.1742 0.9847 0.0000
vn 0.1252 0.9921 0.0000
vn 0.0570 0.9984 0.0000
vn -0.0118 0.9999 0.0000
vn 0.1742 0.9847 0.0000
usemtl Material.001
s off
f 68/1/1 71/2/1 4/3/1 2/4/1
f 8/5/2 77/6/2 98/7/2 97/8/2 24/9/2
f 68/1/3 2/4/3 16/10/3 70/11/3
f 2/4/4 4/3/4 17/12/4 16/10/4
f 3/13/5 1/14/5 14/15/5 13/16/5
f 54/17/2 3/13/2 13/16/2 56/18/2
f 72/19/2 10/20/2 18/21/2 74/22/2
f 58/23/3 9/24/3 15/25/3 60/26/3
f 6/27/3 63/28/3 88/29/3 87/30/3 22/31/3
f 58/23/1 53/32/1 10/20/1 9/24/1
f 6/27/6 5/33/6 13/16/6 14/15/6
f 75/34/6 11/35/6 15/25/6 69/36/6
f 8/5/6 7/37/6 16/10/6 17/12/6
f 61/38/6 12/39/6 18/21/6 55/40/6
f 63/28/6 6/27/6 14/15/6 59/41/6
f 77/6/6 8/5/6 17/12/6 73/42/6
f 75/34/3 76/43/3 93/44/3 92/45/3 79/46/3
f 66/47/7 19/48/7 20/49/7 65/50/7
f 64/51/3 11/35/3 19/48/3 66/47/3
f 7/37/4 8/5/4 24/9/4 23/52/4
f 5/33/5 6/27/5 22/31/5 21/53/5
f 78/54/2 12/39/2 20/49/2 80/55/2
f 25/56/1 27/57/1 28/58/1 26/59/1
f 32/60/2 29/61/2 37/62/2 39/63/2 40/64/2 38/65/2 49/66/2 51/67/2 52/68/2 50/69/2
f 25/56/3 26/59/3 35/70/3 34/71/3
f 26/59/4 28/58/4 36/72/4 35/70/4
f 27/57/5 25/56/5 34/71/5 33/73/5
f 28/58/2 27/57/2 33/73/2 36/72/2
f 30/74/6 29/61/6 33/73/6 34/71/6
f 31/75/6 30/74/6 34/71/6 35/70/6
f 32/60/6 31/75/6 35/70/6 36/72/6
f 29/61/6 32/60/6 36/72/6 33/73/6
f 29/61/5 30/74/5 42/76/5 37/62/5
f 30/74/3 31/75/3 45/77/3 47/78/3 48/79/3 46/80/3 41/81/3 43/82/3 44/83/3 42/76/3
f 37/62/8 42/76/8 44/83/8 39/63/8
f 39/63/9 44/83/9 43/82/9 40/64/9
f 40/64/10 43/82/10 41/81/10 38/65/10
f 31/75/4 32/60/4 50/69/4 45/77/4
f 45/77/11 50/69/11 52/68/11 47/78/11
f 47/78/12 52/68/12 51/67/12 48/79/12
f 48/79/13 51/67/13 49/66/13 46/80/13
f 41/81/6 46/80/6 49/66/6 38/65/6
f 63/28/3 64/51/3 66/47/3 86/84/3 88/29/3
f 61/38/2 62/85/2 83/86/2 82/87/2 65/50/2
f 62/85/2 5/33/2 21/53/2 81/88/2 83/86/2
f 11/35/6 64/51/6 60/26/6 15/25/6
f 64/51/6 63/28/6 59/41/6 60/26/6
f 5/33/6 62/85/6 56/18/6 13/16/6
f 62/85/6 61/38/6 55/40/6 56/18/6
f 1/14/1 3/13/1 54/17/1 57/89/1
f 57/89/1 54/17/1 53/32/1 58/23/1
f 12/39/2 61/38/2 65/50/2 20/49/2
f 86/84/7 66/47/7 65/50/7 82/87/7
f 1/14/3 57/89/3 59/41/3 14/15/3
f 57/89/3 58/23/3 60/26/3 59/41/3
f 10/20/2 53/32/2 55/40/2 18/21/2
f 53/32/2 54/17/2 56/18/2 55/40/2
f 77/6/2 78/54/2 80/55/2 96/90/2 98/7/2
f 19/48/14 79/46/14 80/55/14 20/49/14
f 76/43/3 7/37/3 23/52/3 91/91/3 93/44/3
f 12/39/6 78/54/6 74/22/6 18/21/6
f 78/54/6 77/6/6 73/42/6 74/22/6
f 7/37/6 76/43/6 70/11/6 16/10/6
f 76/43/6 75/34/6 69/36/6 70/11/6
f 4/3/2 71/2/2 73/42/2 17/12/2
f 71/2/2 72/19/2 74/22/2 73/42/2
f 9/24/3 67/92/3 69/36/3 15/25/3
f 67/92/3 68/1/3 70/11/3 69/36/3
f 11/35/3 75/34/3 79/46/3 19/48/3
f 79/46/14 92/45/14 96/90/14 80/55/14
f 9/24/1 10/20/1 72/19/1 67/92/1
f 67/92/1 72/19/1 71/2/1 68/1/1
f 81/88/2 84/93/2 83/86/2
f 84/93/2 85/94/2 83/86/2
f 85/94/2 82/95/2 83/86/2
f 86/84/3 89/96/3 88/29/3
f 89/96/3 90/97/3 88/29/3
f 90/97/3 87/98/3 88/29/3
f 86/84/15 82/87/15 85/99/15 89/96/15
f 89/96/16 85/99/16 84/93/16 90/100/16
f 90/100/17 84/93/17 81/88/17 87/30/17
f 22/31/18 87/30/18 81/88/18 21/53/18
f 91/91/3 94/101/3 93/44/3
f 94/101/3 95/102/3 93/44/3
f 95/102/3 92/103/3 93/44/3
f 96/90/2 99/104/2 98/7/2
f 99/104/2 100/105/2 98/7/2
f 100/105/2 97/106/2 98/7/2
f 91/91/19 97/8/19 100/107/19 94/101/19
f 94/101/20 100/107/20 99/104/20 95/108/20
f 95/108/21 99/104/21 96/90/21 92/45/21
f 91/91/22 23/52/22 24/9/22 97/8/22
