# Blender v3.0.1 OBJ File: ''
# www.blender.org
mtllib Libro.mtl
o Plane
v 0.433918 0.091179 -0.234524
v 0.433918 0.119143 -0.235626
v 0.433918 0.139833 -0.235626
v 0.433918 0.160523 -0.235626
v 0.433918 0.188487 -0.234524
v 0.443892 0.181213 0.254909
v 0.443892 0.160523 0.254909
v 0.443892 0.139833 0.254909
v 0.443892 0.119143 0.254909
v 0.443892 0.098452 0.254909
v -0.443892 0.098452 0.254909
v -0.443892 0.119143 0.254909
v -0.443892 0.139833 0.254909
v -0.443892 0.160523 0.254909
v -0.443892 0.181213 0.254909
v -0.436562 0.188487 -0.234524
v -0.436562 0.160523 -0.235626
v -0.436562 0.139833 -0.235626
v -0.436562 0.119143 -0.235626
v -0.436562 0.091179 -0.234524
v -0.443892 0.077762 0.224243
v 0.443892 0.077762 0.224243
v -0.443892 0.201904 0.224243
v 0.443892 0.201904 0.224243
v -0.443834 0.098452 0.224243
v -0.443834 0.119143 0.224243
v -0.443834 0.139833 0.224243
v -0.443834 0.160523 0.224243
v -0.443834 0.181213 0.224243
v 0.443834 0.098452 0.224243
v 0.443834 0.119143 0.224243
v 0.443834 0.139833 0.224243
v 0.443834 0.160523 0.224243
v 0.443834 0.181213 0.224243
v -0.443892 0.184821 0.254909
v -0.443892 0.201904 0.237826
v -0.443892 0.196900 0.249905
v 0.443892 0.201904 0.237826
v 0.443892 0.184821 0.254909
v 0.443892 0.196900 0.249905
v -0.443892 0.077762 0.227896
v -0.443892 0.098452 0.254909
v -0.443892 0.080534 0.241402
v -0.443892 0.088107 0.251290
v 0.443892 0.098452 0.254909
v 0.443892 0.077762 0.227896
v 0.443892 0.088107 0.251290
v 0.443892 0.080534 0.241402
v -0.443892 0.201904 -0.242046
v -0.443892 0.189041 -0.245727
v -0.443892 0.200180 -0.248478
v -0.443892 0.195472 -0.253186
v 0.443892 0.189041 -0.245727
v 0.443892 0.201904 -0.242046
v 0.443892 0.195472 -0.253186
v 0.443892 0.200180 -0.248478
v -0.443892 0.090884 -0.245727
v -0.443892 0.077762 -0.240409
v -0.443892 0.085012 -0.252966
v -0.443892 0.079705 -0.247659
v 0.443892 0.077762 -0.240409
v 0.443892 0.090884 -0.245727
v 0.443892 0.079705 -0.247659
v 0.443892 0.085012 -0.252966
v 0.433918 0.098412 0.221665
v 0.433918 0.119143 0.221659
v 0.433918 0.139833 0.221659
v 0.433918 0.160523 0.221659
v 0.433918 0.181254 0.221665
v -0.436562 0.098411 0.221646
v -0.436562 0.119143 0.221639
v -0.436562 0.139833 0.221639
v -0.436562 0.160523 0.221639
v -0.436562 0.181255 0.221646
vt 1.000000 0.060150
vt 1.000000 0.971560
vt 1.000000 0.985780
vt 1.000000 0.998730
vt 1.000000 1.000000
vt 1.000000 1.000000
vt 1.000000 0.065432
vt 1.000000 0.060150
vt 1.000000 0.060150
vt 1.000000 0.065432
vt 1.000000 1.000000
vt 1.000000 1.000000
vt 1.000000 0.998873
vt 1.000000 0.987385
vt 1.000000 0.974771
vt 1.000000 0.060150
vt 1.000000 0.000000
vt 1.000000 0.033508
vt 1.000000 0.003271
vt 1.000000 0.000000
vt 0.000000 1.000000
vt 0.000000 0.065472
vt 0.000000 0.060150
vt 0.000000 0.060150
vt 0.000000 0.974771
vt 0.000000 0.987385
vt 0.000000 0.998873
vt 0.000000 1.000000
vt 0.000000 0.000000
vt 0.000000 0.000000
vt 0.000000 0.003271
vt 0.000000 0.033508
vt 0.000000 0.060150
vt 0.000000 0.052986
vt 0.000000 0.026493
vt 0.000000 0.002366
vt 0.000000 0.000000
vt 0.000000 0.000000
vt 0.000000 0.060150
vt 1.000000 0.000000
vt 1.000000 0.000000
vt 0.000000 0.000000
vt 1.000000 0.000000
vt 0.000000 0.000000
vt 1.000000 0.000000
vt 0.000000 0.000000
vt 0.000000 1.000000
vt 0.000000 0.998730
vt 0.000000 0.985780
vt 0.000000 0.971560
vt 0.000000 0.065472
vt 0.000000 1.000000
vt 1.000000 0.000000
vt 1.000000 0.002366
vt 1.000000 0.026493
vt 1.000000 0.052986
vt 0.000000 0.060150
vt 0.000000 0.060150
vt 0.000000 0.060150
vt 1.000000 0.060150
vt 1.000000 0.060150
vt 1.000000 0.060150
vt 0.000000 0.065472
vt 0.000000 0.065472
vt 0.000000 0.065472
vt 1.000000 0.065432
vt 1.000000 0.065432
vt 1.000000 0.065432
vt 0.000000 1.000000
vt 1.000000 1.000000
vt 0.000000 1.000000
vt 1.000000 1.000000
vt 0.000000 1.000000
vt 1.000000 1.000000
vn 0.8664 0.4993 -0.0079
vn 0.8665 -0.4992 -0.0081
vn 1.0000 -0.0016 -0.0011
vn -0.9209 -0.3898 -0.0063
vn -1.0000 -0.0016 -0.0011
vn -1.0000 0.0018 -0.0012
vn 0.0000 0.0000 1.0000
vn -0.9208 0.3900 -0.0062
vn 1.0000 0.0018 -0.0012
vn -1.0000 0.0000 -0.0019
vn 1.0000 0.0000 -0.0019
vn -0.3367 0.0001 -0.9416
vn -0.3371 0.0000 -0.9415
vn -0.3367 -0.0001 -0.9416
vn 0.0000 -1.0000 0.0000
vn 0.0000 1.0000 0.0000
vn 0.0000 0.3827 0.9239
vn 0.0000 0.9239 0.3827
vn 0.0000 -0.9796 0.2010
vn 0.0000 -0.7939 0.6081
vn 0.0000 -0.3302 0.9439
vn 0.0000 -0.7574 -0.6530
vn 0.0000 0.7071 -0.7071
vn 0.0000 0.9659 -0.2588
vn 0.0000 -0.9988 -0.0494
vn 0.0000 -0.9659 -0.2588
vn 0.0000 -0.7071 -0.7071
vn 0.0000 0.7766 -0.6300
vn 0.0000 0.9997 -0.0263
vn 0.2519 0.0001 -0.9678
vn 0.2522 0.0000 -0.9677
vn 0.2519 -0.0001 -0.9678
vn 0.0000 -0.0394 -0.9992
vn 0.0000 0.0000 -1.0000
vn 0.0000 0.0394 -0.9992
vn 1.0000 -0.0000 0.0000
vn -1.0000 0.0000 0.0000
usemtl Cubierta
s off
f 22/1/1 61/2/1 63/3/1 64/4/1 62/5/1 1/6/1 65/7/1 30/8/1
f 34/9/2 69/10/2 5/11/2 53/12/2 55/13/2 56/14/2 54/15/2 24/16/2
f 6/17/3 34/9/3 24/16/3 38/18/3 40/19/3 39/20/3
f 16/21/4 74/22/4 29/23/4 23/24/4 49/25/4 51/26/4 52/27/4 50/28/4
f 29/23/5 15/29/5 35/30/5 37/31/5 36/32/5 23/24/5
f 21/33/6 41/34/6 43/35/6 44/36/6 42/37/6 11/38/6 25/39/6
f 11/38/7 10/40/7 9/41/7 12/42/7
f 12/42/7 9/41/7 8/43/7 13/44/7
f 13/44/7 8/43/7 7/45/7 14/46/7
f 14/46/7 7/45/7 6/17/7 15/29/7
f 57/47/8 59/48/8 60/49/8 58/50/8 21/33/8 25/39/8 70/51/8 20/52/8
f 45/53/9 47/54/9 48/55/9 46/56/9 22/1/9 30/8/9 10/40/9
f 25/39/10 11/38/10 12/42/10 26/57/10
f 26/57/10 12/42/10 13/44/10 27/58/10
f 27/58/10 13/44/10 14/46/10 28/59/10
f 28/59/10 14/46/10 15/29/10 29/23/10
f 7/45/11 33/60/11 34/9/11 6/17/11
f 8/43/11 32/61/11 33/60/11 7/45/11
f 9/41/11 31/62/11 32/61/11 8/43/11
f 10/40/11 30/8/11 31/62/11 9/41/11
f 73/63/12 28/59/12 29/23/12 74/22/12
f 72/64/13 27/58/13 28/59/13 73/63/13
f 71/65/13 26/57/13 27/58/13 72/64/13
f 70/51/14 25/39/14 26/57/14 71/65/14
f 21/33/15 58/50/15 61/2/15 22/1/15
f 23/24/16 24/16/16 54/15/16 49/25/16
f 15/29/7 6/17/7 39/20/7 35/30/7
f 42/37/7 45/53/7 10/40/7 11/38/7
f 35/30/17 39/20/17 40/19/17 37/31/17
f 37/31/18 40/19/18 38/18/18 36/32/18
f 36/32/16 38/18/16 24/16/16 23/24/16
f 41/34/19 46/56/19 48/55/19 43/35/19
f 43/35/20 48/55/20 47/54/20 44/36/20
f 44/36/21 47/54/21 45/53/21 42/37/21
f 41/34/15 21/33/15 22/1/15 46/56/15
f 53/12/22 50/28/22 52/27/22 55/13/22
f 55/13/23 52/27/23 51/26/23 56/14/23
f 56/14/24 51/26/24 49/25/24 54/15/24
f 5/11/25 16/21/25 50/28/25 53/12/25
f 61/2/26 58/50/26 60/49/26 63/3/26
f 63/3/27 60/49/27 59/48/27 64/4/27
f 64/4/28 59/48/28 57/47/28 62/5/28
f 62/5/29 57/47/29 20/52/29 1/6/29
f 33/60/30 68/66/30 69/10/30 34/9/30
f 32/61/31 67/67/31 68/66/31 33/60/31
f 31/62/31 66/68/31 67/67/31 32/61/31
f 30/8/32 65/7/32 66/68/32 31/62/32
usemtl Papel
f 1/6/33 20/52/33 19/69/33 2/70/33
f 2/70/34 19/69/34 18/71/34 3/72/34
f 3/72/34 18/71/34 17/73/34 4/74/34
f 4/74/35 17/73/35 16/21/35 5/11/35
f 65/7/36 1/6/36 2/70/36 66/68/36
f 66/68/36 2/70/36 3/72/36 67/67/36
f 67/67/36 3/72/36 4/74/36 68/66/36
f 68/66/36 4/74/36 5/11/36 69/10/36
f 20/52/37 70/51/37 71/65/37 19/69/37
f 19/69/37 71/65/37 72/64/37 18/71/37
f 18/71/37 72/64/37 73/63/37 17/73/37
f 17/73/37 73/63/37 74/22/37 16/21/37
