# Blender v3.0.1 OBJ File: 'Tumbas.blend'
# www.blender.org
mtllib tumba3.mtl
o Tumba3_Plane.007
v -1.000000 0.000000 2.005123
v 1.000000 0.000000 2.005123
v -1.000000 0.000000 -2.005123
v 1.000000 0.000000 -2.005123
v -0.306058 0.113510 -0.613684
v -0.306058 0.113510 0.613684
v 0.306058 0.113510 0.613684
v 0.306058 0.113510 -0.613684
v -1.000000 0.028925 -2.005123
v -1.000000 0.028925 2.005123
v 1.000000 0.028925 2.005123
v 1.000000 0.028925 -2.005123
v -0.809408 0.028925 -1.622964
v -0.809408 0.028925 1.622964
v 0.809408 0.028925 1.622964
v 0.809408 0.028925 -1.622964
v -0.556032 0.082284 -1.114912
v -0.556032 0.082284 1.114912
v 0.556032 0.082284 1.114912
v 0.556032 0.082284 -1.114912
vt 1.000000 0.000000
vt 1.000000 1.000000
vt 1.000000 1.000000
vt 1.000000 0.000000
vt 0.000000 1.000000
vt 0.000000 0.000000
vt 0.000000 0.000000
vt 0.000000 1.000000
vt 0.095296 0.095296
vt 0.095296 0.904704
vt 0.904704 0.095296
vt 0.904704 0.904704
vt 0.346971 0.346971
vt 0.653029 0.346971
vt 0.653029 0.653029
vt 0.346971 0.653029
vt 0.221984 0.221984
vt 0.221984 0.778016
vt 0.778016 0.221984
vt 0.778016 0.778016
vn 1.0000 0.0000 0.0000
vn -1.0000 0.0000 0.0000
vn 0.0000 0.0000 -1.0000
vn 0.0000 0.0000 1.0000
vn 0.0000 1.0000 0.0000
vn 0.0000 -1.0000 0.0000
vn -0.2061 0.9785 0.0000
vn 0.0000 0.9945 0.1045
vn 0.2061 0.9785 0.0000
vn 0.0000 0.9945 -0.1045
vn -0.1240 0.9923 0.0000
vn 0.0000 0.9981 0.0622
vn 0.1240 0.9923 0.0000
vn 0.0000 0.9981 -0.0622
usemtl Rock
s off
f 2/1/1 4/2/1 12/3/1 11/4/1
f 3/5/2 1/6/2 10/7/2 9/8/2
f 4/2/3 3/5/3 9/8/3 12/3/3
f 1/6/4 2/1/4 11/4/4 10/7/4
f 14/9/5 13/10/5 9/8/5 10/7/5
f 15/11/5 14/9/5 10/7/5 11/4/5
f 16/12/5 15/11/5 11/4/5 12/3/5
f 13/10/5 16/12/5 12/3/5 9/8/5
usemtl Ground
f 1/6/6 3/5/6 4/2/6 2/1/6
f 6/13/5 7/14/5 8/15/5 5/16/5
f 18/17/7 17/18/7 13/10/7 14/9/7
f 19/19/8 18/17/8 14/9/8 15/11/8
f 20/20/9 19/19/9 15/11/9 16/12/9
f 17/18/10 20/20/10 16/12/10 13/10/10
f 6/13/11 5/16/11 17/18/11 18/17/11
f 7/14/12 6/13/12 18/17/12 19/19/12
f 8/15/13 7/14/13 19/19/13 20/20/13
f 5/16/14 8/15/14 20/20/14 17/18/14
