# Blender v3.0.1 OBJ File: 'Tumbas.blend'
# www.blender.org
mtllib Tumba1.mtl
o TumbaBase_Plane.001
v -0.975175 0.000000 2.007929
v 0.975175 0.000000 2.007929
v -0.975175 0.000000 -2.007929
v 0.975175 0.000000 -2.007929
v -0.783118 0.097941 -1.612475
v -0.783118 0.097941 1.612475
v 0.783118 0.097941 1.612475
v 0.783118 0.097941 -1.612475
v -0.975175 0.097941 -2.007929
v -0.975175 0.097941 2.007929
v 0.975175 0.097941 2.007929
v 0.975175 0.097941 -2.007929
v -0.783118 0.419280 -1.612475
v -0.783118 0.419280 1.612475
v 0.783118 0.419280 1.612475
v 0.783118 0.419280 -1.612475
v -0.975175 0.000000 -1.157760
v -0.975175 0.000000 -0.547467
v 0.975175 0.000000 -0.547467
v 0.975175 0.000000 -1.157760
v -0.975175 0.097941 -1.157760
v -0.975175 0.097941 -0.547467
v 0.975175 0.097941 -0.547467
v 0.975175 0.097941 -1.157760
v -0.783118 0.097941 -1.016772
v -0.783118 0.097941 -0.526675
v 0.783118 0.097941 -0.526675
v 0.783118 0.097941 -1.016772
v -0.783118 0.419280 -1.016772
v -0.783118 0.419280 -0.526675
v 0.783118 0.419280 -0.526675
v 0.783118 0.419280 -1.016772
v -0.325058 0.000000 2.007929
v 0.325058 0.000000 2.007929
v 0.325058 0.000000 -2.007929
v -0.325058 0.000000 -2.007929
v -0.325058 0.097941 2.007929
v 0.325058 0.097941 2.007929
v 0.325058 0.097941 -2.007929
v -0.325058 0.097941 -2.007929
v -0.261039 0.097941 1.612475
v 0.261039 0.097941 1.612475
v 0.261039 0.097941 -1.612475
v -0.261039 0.097941 -1.612475
v -0.261039 0.419280 1.612475
v 0.261039 0.419280 1.612475
v 0.261039 0.419280 -1.612475
v -0.261039 0.419280 -1.612475
v -0.325058 0.000000 -0.547467
v 0.325058 0.000000 -0.547467
v -0.325058 0.000000 -1.157760
v 0.325058 0.000000 -1.157760
v 0.975175 0.000000 -1.582844
v 0.975175 0.097941 -1.582844
v 0.783118 0.097941 -1.314623
v 0.783118 0.419280 -1.314623
v -0.975175 0.000000 -1.582844
v -0.975175 0.097941 -1.582844
v -0.783118 0.097941 -1.314623
v -0.783118 0.419280 -1.314623
v -0.261039 0.419280 -1.314623
v 0.261039 0.419280 -1.314623
v -0.325058 0.000000 -1.582844
v 0.325058 0.000000 -1.582844
v 0.650117 0.000000 2.007929
v 0.650117 0.097941 2.007929
v 0.522078 0.097941 1.612475
v 0.522078 0.419280 1.612475
v 0.650117 0.000000 -0.547467
v 0.650117 0.000000 -1.157760
v 0.650117 0.000000 -2.007929
v 0.650117 0.097941 -2.007929
v 0.522078 0.097941 -1.612475
v 0.522078 0.419280 -1.612475
v 0.522078 0.419280 -0.526675
v 0.522078 0.419280 -1.016772
v 0.522078 0.419280 -1.314623
v 0.650117 0.000000 -1.582844
v -0.650117 0.000000 -2.007929
v -0.650117 0.097941 -2.007929
v -0.522078 0.097941 -1.612475
v -0.522078 0.419280 -1.612475
v -0.522078 0.419280 -0.526675
v -0.522078 0.419280 -1.016772
v -0.650117 0.000000 2.007929
v -0.650117 0.097941 2.007929
v -0.522078 0.097941 1.612475
v -0.522078 0.419280 1.612475
v -0.650117 0.000000 -0.547467
v -0.650117 0.000000 -1.157760
v -0.650117 0.000000 -1.582844
v -0.522078 0.419280 -1.314623
v -0.975175 0.000000 1.541988
v -0.975175 0.097941 1.541988
v -0.783118 0.097941 1.354657
v -0.783118 0.419280 1.354657
v 0.975175 0.000000 1.541988
v 0.975175 0.097941 1.541988
v 0.783118 0.097941 1.354657
v 0.783118 0.419280 1.354657
v -0.325058 0.000000 1.541988
v 0.325058 0.000000 1.541988
v -0.261039 0.419280 1.354657
v 0.261039 0.419280 1.354657
v 0.650117 0.000000 1.541988
v 0.522078 0.419280 1.354657
v -0.522078 0.419280 1.354657
v -0.650117 0.000000 1.541988
v 0.522078 0.407981 -0.526675
v 0.261039 0.407981 -0.526675
v -0.261039 0.407981 -0.526675
v 0.522078 0.407981 -1.016772
v 0.261039 0.407981 -1.016772
v -0.261039 0.407981 -1.016772
v -0.261039 0.407981 1.354657
v 0.261039 0.407981 1.354657
v -0.261039 0.407981 -1.314623
v 0.261039 0.407981 -1.314623
v 0.522078 0.407981 -1.314623
v 0.522078 0.407981 1.354657
v -0.522078 0.407981 -0.526675
v -0.522078 0.407981 -1.016772
v -0.522078 0.407981 -1.314623
v -0.522078 0.407981 1.354657
vt 0.833333 0.945499
vt 0.833333 1.000000
vt 1.000000 1.000000
vt 1.000000 0.945499
vt 0.901527 0.857759
vt 0.901527 0.901527
vt 0.901527 0.901527
vt 0.901527 0.857759
vt 0.166667 1.000000
vt 0.000000 1.000000
vt 0.000000 1.000000
vt 0.166667 1.000000
vt 0.833333 0.000000
vt 1.000000 0.000000
vt 1.000000 0.000000
vt 0.833333 0.000000
vt 1.000000 1.000000
vt 1.000000 0.945499
vt 0.000000 0.101682
vt 0.000000 0.000000
vt 0.000000 0.000000
vt 0.000000 0.101682
vt 0.098473 0.857759
vt 0.098473 0.901527
vt 0.000000 0.945499
vt 0.232316 0.098473
vt 0.098473 0.098473
vt 0.166667 0.000000
vt 0.901527 0.152448
vt 0.901527 0.098473
vt 1.000000 0.101682
vt 0.767685 0.901527
vt 0.833333 1.000000
vt 0.767684 0.857759
vt 0.767685 0.901527
vt 0.098473 0.152448
vt 0.098473 0.098473
vt 0.098473 0.152448
vt 0.232316 0.901527
vt 0.098473 0.901527
vt 0.232315 0.901527
vt 0.767685 0.098473
vt 0.901527 0.098473
vt 0.767685 0.098473
vt 0.098473 0.813992
vt 0.098473 0.813992
vt 0.098473 0.857759
vt 0.098473 0.546308
vt 0.098473 0.546307
vt 0.767685 0.152448
vt 0.901527 0.152448
vt 0.901527 0.546308
vt 0.767685 0.546308
vt 0.901527 0.813992
vt 0.767685 0.813992
vt 0.901527 0.813992
vt 1.000000 0.890998
vt 0.901527 0.546308
vt 1.000000 0.557664
vt 0.000000 0.557664
vt 0.000000 0.890998
vt 0.000000 0.945499
vt 0.000000 0.890998
vt 0.000000 0.557664
vt 1.000000 0.101682
vt 1.000000 0.557664
vt 1.000000 0.890998
vt 0.833333 0.101682
vt 0.833333 0.557664
vt 0.833333 0.890998
vt 0.166667 0.557664
vt 0.166667 0.890998
vt 0.333333 0.890998
vt 0.333333 0.557664
vt 0.666667 0.890998
vt 0.666667 0.557664
vt 0.166667 0.101682
vt 0.333333 0.101682
vt 0.666667 0.101682
vt 0.633842 0.857759
vt 0.633842 0.857759
vt 0.767684 0.857759
vt 0.767685 0.546308
vt 0.767685 0.152448
vt 0.767685 0.813992
vt 0.232316 0.546307
vt 0.232316 0.152448
vt 0.232316 0.152448
vt 0.232316 0.546307
vt 0.366158 0.098473
vt 0.366158 0.098473
vt 0.232316 0.098473
vt 0.633842 0.098473
vt 0.633842 0.098473
vt 0.633842 0.901527
vt 0.633842 0.901527
vt 0.366158 0.901527
vt 0.366158 0.901527
vt 0.232316 0.857759
vt 0.366158 0.857759
vt 0.333333 1.000000
vt 0.666667 1.000000
vt 0.666667 0.000000
vt 0.333333 0.000000
vt 0.166667 0.000000
vt 0.333333 0.000000
vt 0.666667 0.000000
vt 0.666667 1.000000
vt 0.333333 1.000000
vt 0.166667 0.945499
vt 0.333333 0.945499
vt 0.666667 0.945499
vt 0.232316 0.813992
vt 0.232316 0.813992
vt 0.232316 0.857759
vt 0.366158 0.152448
vt 0.633842 0.152448
vt 0.633842 0.152448
vt 0.366158 0.152448
vt 0.366158 0.857759
vt 0.366158 0.546308
vt 0.366158 0.813992
vt 0.633842 0.546308
vt 0.633842 0.813992
vn 0.0000 -1.0000 0.0000
vn 1.0000 0.0000 0.0000
vn 0.0000 0.0000 -1.0000
vn 0.0000 0.0000 1.0000
vn -1.0000 0.0000 0.0000
vn 0.0000 1.0000 0.0000
usemtl Tumba
s off
f 78/1/1 71/2/1 4/3/1 53/4/1
f 55/5/2 8/6/2 16/7/2 56/8/2
f 79/9/3 3/10/3 9/11/3 80/12/3
f 65/13/4 2/14/4 11/15/4 66/16/4
f 53/4/2 4/3/2 12/17/2 54/18/2
f 93/19/5 1/20/5 10/21/5 94/22/5
f 59/23/6 5/24/6 9/11/6 58/25/6
f 87/26/6 6/27/6 10/21/6 86/28/6
f 99/29/6 7/30/6 11/15/6 98/31/6
f 73/32/6 8/6/6 12/17/6 72/33/6
f 77/34/6 56/8/6 16/7/6 74/35/6
f 95/36/5 6/27/5 14/37/5 96/38/5
f 81/39/3 5/24/3 13/40/3 82/41/3
f 67/42/4 7/30/4 15/43/4 68/44/4
f 59/23/5 25/45/5 29/46/5 60/47/5
f 25/45/5 26/48/5 30/49/5 29/46/5
f 106/50/6 100/51/6 31/52/6 75/53/6
f 75/53/6 31/52/6 32/54/6 76/55/6
f 55/5/6 28/56/6 24/57/6 54/18/6
f 28/56/6 27/58/6 23/59/6 24/57/6
f 95/36/6 26/48/6 22/60/6 94/22/6
f 26/48/6 25/45/6 21/61/6 22/60/6
f 57/62/5 17/63/5 21/61/5 58/25/5
f 17/63/5 18/64/5 22/60/5 21/61/5
f 97/65/2 19/66/2 23/59/2 98/31/2
f 19/66/2 20/67/2 24/57/2 23/59/2
f 99/29/2 27/58/2 31/52/2 100/51/2
f 27/58/2 28/56/2 32/54/2 31/52/2
f 105/68/1 69/69/1 19/66/1 97/65/1
f 69/69/1 70/70/1 20/67/1 19/66/1
f 89/71/1 90/72/1 51/73/1 49/74/1
f 49/74/1 51/73/1 52/75/1 50/76/1
f 108/77/1 89/71/1 49/74/1 101/78/1
f 101/78/1 49/74/1 50/76/1 102/79/1
f 77/34/4 62/80/4 118/81/4 119/82/4
f 106/50/5 75/53/5 109/83/5 120/84/5
f 76/55/5 77/34/5 119/82/5 112/85/5
f 83/86/2 107/87/2 124/88/2 121/89/2
f 87/26/4 41/90/4 45/91/4 88/92/4
f 41/90/4 42/93/4 46/94/4 45/91/4
f 73/32/3 43/95/3 47/96/3 74/35/3
f 43/95/3 44/97/3 48/98/3 47/96/3
f 92/99/6 61/100/6 48/98/6 82/41/6
f 61/100/6 62/80/6 47/96/6 48/98/6
f 81/39/6 44/97/6 40/101/6 80/12/6
f 44/97/6 43/95/6 39/102/6 40/101/6
f 67/42/6 42/93/6 38/103/6 66/16/6
f 42/93/6 41/90/6 37/104/6 38/103/6
f 85/105/4 33/106/4 37/104/4 86/28/4
f 33/106/4 34/107/4 38/103/4 37/104/4
f 71/2/3 35/108/3 39/102/3 72/33/3
f 35/108/3 36/109/3 40/101/3 39/102/3
f 91/110/1 79/9/1 36/109/1 63/111/1
f 63/111/1 36/109/1 35/108/1 64/112/1
f 51/73/1 63/111/1 64/112/1 52/75/1
f 90/72/1 91/110/1 63/111/1 51/73/1
f 92/99/2 84/113/2 122/114/2 123/115/2
f 103/116/3 104/117/3 116/118/3 115/119/3
f 3/10/5 57/62/5 58/25/5 9/11/5
f 8/6/6 55/5/6 54/18/6 12/17/6
f 5/24/5 59/23/5 60/47/5 13/40/5
f 76/55/6 32/54/6 56/8/6 77/34/6
f 25/45/6 59/23/6 58/25/6 21/61/6
f 20/67/2 53/4/2 54/18/2 24/57/2
f 28/56/2 55/5/2 56/8/2 32/54/2
f 70/70/1 78/1/1 53/4/1 20/67/1
f 52/75/1 64/112/1 78/1/1 70/70/1
f 75/53/5 76/55/5 112/85/5 109/83/5
f 4/3/3 71/2/3 72/33/3 12/17/3
f 7/30/6 67/42/6 66/16/6 11/15/6
f 8/6/3 73/32/3 74/35/3 16/7/3
f 50/76/1 52/75/1 70/70/1 69/69/1
f 102/79/1 50/76/1 69/69/1 105/68/1
f 62/80/4 61/100/4 117/120/4 118/81/4
f 61/100/4 92/99/4 123/115/4 117/120/4
f 42/93/4 67/42/4 68/44/4 46/94/4
f 62/80/6 77/34/6 74/35/6 47/96/6
f 43/95/6 73/32/6 72/33/6 39/102/6
f 34/107/4 65/13/4 66/16/4 38/103/4
f 64/112/1 35/108/1 71/2/1 78/1/1
f 29/46/6 84/113/6 92/99/6 60/47/6
f 17/63/1 57/62/1 91/110/1 90/72/1
f 57/62/1 3/10/1 79/9/1 91/110/1
f 1/20/4 85/105/4 86/28/4 10/21/4
f 5/24/6 81/39/6 80/12/6 9/11/6
f 60/47/6 92/99/6 82/41/6 13/40/6
f 6/27/4 87/26/4 88/92/4 14/37/4
f 96/38/6 107/87/6 83/86/6 30/49/6
f 30/49/6 83/86/6 84/113/6 29/46/6
f 93/19/1 18/64/1 89/71/1 108/77/1
f 18/64/1 17/63/1 90/72/1 89/71/1
f 44/97/3 81/39/3 82/41/3 48/98/3
f 41/90/6 87/26/6 86/28/6 37/104/6
f 36/109/3 79/9/3 80/12/3 40/101/3
f 1/20/1 93/19/1 108/77/1 85/105/1
f 14/37/6 88/92/6 107/87/6 96/38/6
f 46/94/6 68/44/6 106/50/6 104/117/6
f 34/107/1 102/79/1 105/68/1 65/13/1
f 45/91/6 46/94/6 104/117/6 103/116/6
f 88/92/6 45/91/6 103/116/6 107/87/6
f 33/106/1 101/78/1 102/79/1 34/107/1
f 85/105/1 108/77/1 101/78/1 33/106/1
f 65/13/1 105/68/1 97/65/1 2/14/1
f 7/30/2 99/29/2 100/51/2 15/43/2
f 2/14/2 97/65/2 98/31/2 11/15/2
f 6/27/6 95/36/6 94/22/6 10/21/6
f 68/44/6 15/43/6 100/51/6 106/50/6
f 26/48/5 95/36/5 96/38/5 30/49/5
f 27/58/6 99/29/6 98/31/6 23/59/6
f 18/64/5 93/19/5 94/22/5 22/60/5
f 107/87/3 103/116/3 115/119/3 124/88/3
f 84/113/2 83/86/2 121/89/2 122/114/2
f 104/117/3 106/50/3 120/84/3 116/118/3
usemtl Ground
f 121/89/6 111/121/6 114/122/6 122/114/6
f 111/121/6 110/123/6 113/124/6 114/122/6
f 124/88/6 115/119/6 111/121/6 121/89/6
f 115/119/6 116/118/6 110/123/6 111/121/6
f 114/122/6 113/124/6 118/81/6 117/120/6
f 122/114/6 114/122/6 117/120/6 123/115/6
f 113/124/6 112/85/6 119/82/6 118/81/6
f 110/123/6 109/83/6 112/85/6 113/124/6
f 116/118/6 120/84/6 109/83/6 110/123/6
